<svg width="600" height="600" version="1.1" xmlns:xlink="http://www.w3.org/1999/xlink" xmlns="http://www.w3.org/2000/svg"><defs><clipPath id="e2"><rect x="74" y="10" width="452" height="577"/></clipPath><symbol><circle id="e3" cursor="crosshair" fill="#b12c43" r="6"/></symbol><symbol><circle id="e5" cursor="crosshair" fill="#008534" r="6"/></symbol></defs><rect width="100%" height="100%" fill="#fff" stroke-width="0px"/><path d="M300 298.5A 0 0 0 1 1 300 298.5M300 298.5A 0 0 0 1 1 300 298.5M279.45 298.5A 20.545 20.545 0 1 1 320.55 298.5M320.55 298.5A 20.545 20.545 0 1 1 279.45 298.5M258.91 298.5A 41.091 41.091 0 1 1 341.09 298.5M341.09 298.5A 41.091 41.091 0 1 1 258.91 298.5M238.36 298.5A 61.636 61.636 0 1 1 361.64 298.5M361.64 298.5A 61.636 61.636 0 1 1 238.36 298.5M217.82 298.5A 82.182 82.182 0 1 1 382.18 298.5M382.18 298.5A 82.182 82.182 0 1 1 217.82 298.5M197.27 298.5A 102.73 102.73 0 1 1 402.73 298.5M402.73 298.5A 102.73 102.73 0 1 1 197.27 298.5M176.73 298.5A 123.27 123.27 0 1 1 423.27 298.5M423.27 298.5A 123.27 123.27 0 1 1 176.73 298.5M156.18 298.5A 143.82 143.82 0 1 1 443.82 298.5M443.82 298.5A 143.82 143.82 0 1 1 156.18 298.5M135.64 298.5A 164.36 164.36 0 1 1 464.36 298.5M464.36 298.5A 164.36 164.36 0 1 1 135.64 298.5M115.09 298.5A 184.91 184.91 0 1 1 484.91 298.5M484.91 298.5A 184.91 184.91 0 1 1 115.09 298.5M94.545 298.5A 205.45 205.45 0 1 1 505.45 298.5M505.45 298.5A 205.45 205.45 0 1 1 94.545 298.5M74 298.5A 226 226 0 1 1 526 298.5M526 298.5A 226 226 0 1 1 74 298.5M300 298.5l2.7677E-14 -226M300 298.5l-113 -195.72M300 298.5l-195.72 -113M300 298.5l-226 -4.1516E-14M300 298.5l-195.72 113M300 298.5l-113 195.72M300 298.5l-5.5354E-14 226M300 298.5l113 195.72M300 298.5l195.72 113M300 298.5l226 6.9193E-14M300 298.5l195.72 -113M300 298.5l113 -195.72M300 298.5l8.3031E-14 -226" stroke="#666" fill="none"/><g clip-path="url(#e2)"><path fill="none" stroke-dasharray="" stroke-width="5px" stroke="#b12c43" d="M300 195.77 L385.61 150.23 388.96 247.14 471.21 298.5 448.27 384.11 385.61 446.77 300 469.71 214.39 446.77 151.73 384.11 128.79 298.5 151.73 212.89 214.39 150.23 z"/><path fill="none" stroke-dasharray="" stroke-width="5px" stroke="#008534" d="M300 195.77 L369.17 178.69 391.93 245.42 479.43 298.5 454.8 387.87 388 450.93 300 429.31 235.62 410 170.71 373.15 143.85 298.5 159.44 217.35 234.6 185.22 z"/></g><path d="M300 69.5l-3.6739E-16 3M185.5 100.18l1.5 2.5981M101.68 184l2.5981 1.5M71 298.5l3 5.5109E-16M101.68 413l2.5981 -1.5M185.5 496.82l1.5 -2.5981M300 527.5l7.3479E-16 -3M414.5 496.82l-1.5 -2.5981M498.32 413l-2.5981 -1.5M529 298.5l-3 -9.1849E-16M498.32 184l-2.5981 1.5M414.5 100.18l-1.5 2.5981M300 69.5l-1.1022E-15 3M303 298.5l-6 -1.1022E-15M303 277.95l-6 -1.1022E-15M303 257.41l-6 -1.1022E-15M303 236.86l-6 -1.1022E-15M303 216.32l-6 -1.1022E-15M303 195.77l-6 -1.1022E-15M303 175.23l-6 -1.1022E-15M303 154.68l-6 -1.1022E-15M303 134.14l-6 -1.1022E-15M303 113.59l-6 -1.1022E-15M303 93.045l-6 -1.1022E-15M303 72.5l-6 -1.1022E-15M302 294.39l-2 -3.6739E-16M302 290.28l-2 -3.6739E-16M302 286.17l-2 -3.6739E-16M302 282.06l-2 -3.6739E-16M302 273.85l-2 -3.6739E-16M302 269.74l-2 -3.6739E-16M302 265.63l-2 -3.6739E-16M302 261.52l-2 -3.6739E-16M302 253.3l-2 -3.6739E-16M302 249.19l-2 -3.6739E-16M302 245.08l-2 -3.6739E-16M302 240.97l-2 -3.6739E-16M302 232.75l-2 -3.6739E-16M302 228.65l-2 -3.6739E-16M302 224.54l-2 -3.6739E-16M302 220.43l-2 -3.6739E-16M302 212.21l-2 -3.6739E-16M302 208.1l-2 -3.6739E-16M302 203.99l-2 -3.6739E-16M302 199.88l-2 -3.6739E-16M302 191.66l-2 -3.6739E-16M302 187.55l-2 -3.6739E-16M302 183.45l-2 -3.6739E-16M302 179.34l-2 -3.6739E-16M302 171.12l-2 -3.6739E-16M302 167.01l-2 -3.6739E-16M302 162.9l-2 -3.6739E-16M302 158.79l-2 -3.6739E-16M302 150.57l-2 -3.6739E-16M302 146.46l-2 -3.6739E-16M302 142.35l-2 -3.6739E-16M302 138.25l-2 -3.6739E-16M302 130.03l-2 -3.6739E-16M302 125.92l-2 -3.6739E-16M302 121.81l-2 -3.6739E-16M302 117.7l-2 -3.6739E-16M302 109.48l-2 -3.6739E-16M302 105.37l-2 -3.6739E-16M302 101.26l-2 -3.6739E-16M302 97.155l-2 -3.6739E-16M302 88.936l-2 -3.6739E-16M302 84.827l-2 -3.6739E-16M302 80.718l-2 -3.6739E-16M302 76.609l-2 -3.6739E-16" stroke-width="1px" stroke="#666"/><g stroke="#666" stroke-width="2px"><path d="M74 298.5A 226 226 0 1 1 526 298.5M526 298.5A 226 226 0 1 1 74 298.5" fill="none"/><path d="M300 298.5l2.7922E-14 -228"/></g><g font-size="14px" font-family="Georgia" fill="#666"><g text-anchor="end"><text x="295" y="298.5">0.5</text><text x="295" y="277.95">0.8</text><text x="295" y="257.41">1.1</text><text x="295" y="236.86">1.4</text><text x="295" y="216.32">1.7</text><text x="295" y="195.77">2</text><text x="295" y="175.23">2.3</text><text x="295" y="154.68">2.6</text><text x="295" y="134.14">2.9</text><text x="295" y="113.59">3.2</text><text x="295" y="93.045">3.5</text><text x="295" y="72.5">3.8</text></g><text x="300" y="56.3" text-anchor="middle">C1</text><text x="415.5" y="94.248" text-anchor="start">C2</text><text x="500.05" y="178.8" text-anchor="start">C3</text><text x="531" y="301.3" text-anchor="start">C4</text><text x="500.05" y="423.8" text-anchor="start">C5</text><text x="415.5" y="508.35" text-anchor="start">C6</text><text x="300" y="539.3" text-anchor="middle">C7</text><text x="184.5" y="508.35" text-anchor="end">C8</text><text x="99.948" y="423.8" text-anchor="end">C9</text><text x="69" y="301.3" text-anchor="end">C10</text><text x="99.948" y="178.8" text-anchor="end">C11</text><text x="184.5" y="94.248" text-anchor="end">C12</text></g><use x="300" y="195.77" xlink:href="#e3" id="e7"></use><use x="385.61" y="150.23" xlink:href="#e3" id="e8"></use><use x="388.96" y="247.14" xlink:href="#e3" id="e9"></use><use x="471.21" y="298.5" xlink:href="#e3" id="ea"></use><use x="448.27" y="384.11" xlink:href="#e3" id="eb"></use><use x="385.61" y="446.77" xlink:href="#e3" id="ec"></use><use x="300" y="469.71" xlink:href="#e3" id="ed"></use><use x="214.39" y="446.77" xlink:href="#e3" id="ee"></use><use x="151.73" y="384.11" xlink:href="#e3" id="ef"></use><use x="128.79" y="298.5" xlink:href="#e3" id="eg"></use><use x="151.73" y="212.89" xlink:href="#e3" id="eh"></use><use x="214.39" y="150.23" xlink:href="#e3" id="ei"></use><use x="300" y="195.77" xlink:href="#e5" id="ej"></use><use x="369.17" y="178.69" xlink:href="#e5" id="ek"></use><use x="391.93" y="245.42" xlink:href="#e5" id="el"></use><use x="479.43" y="298.5" xlink:href="#e5" id="em"></use><use x="454.8" y="387.87" xlink:href="#e5" id="en"></use><use x="388" y="450.93" xlink:href="#e5" id="eo"></use><use x="300" y="429.31" xlink:href="#e5" id="ep"></use><use x="235.62" y="410" xlink:href="#e5" id="eq"></use><use x="170.71" y="373.15" xlink:href="#e5" id="er"></use><use x="143.85" y="298.5" xlink:href="#e5" id="es"></use><use x="159.44" y="217.35" xlink:href="#e5" id="et"></use><use x="234.6" y="185.22" xlink:href="#e5" id="eu"></use><g font-family="sans-serif" font-size="15px" fill="#666" transform="translate(150,550)" id="ev"><rect fill="white" width="317" height="50"/><text x="158.5" y="16.25" text-anchor="middle" font-weight="bold">Legend</text><g transform="translate(5,0)"><path fill="none" stroke-dasharray="" stroke-width="5px" stroke="#b12c43" d="M0 35l20 0"/><use x="10" y="35" xlink:href="#e3"></use></g><g transform="translate(161,0)"><path fill="none" stroke-dasharray="" stroke-width="5px" stroke="#008534" d="M0 35l20 0"/><use x="10" y="35" xlink:href="#e5"></use></g><g transform="translate(30,0)"><text x="0" y="38.75">Required Level</text></g><g transform="translate(186,0)"><text x="0" y="38.75">Assessed Level</text></g></g></svg>
