<svg width="600" height="600" version="1.1" xmlns:xlink="http://www.w3.org/1999/xlink" xmlns="http://www.w3.org/2000/svg"><defs><clipPath id="e2"><rect x="74" y="10" width="452" height="577"/></clipPath><symbol><circle id="e3" cursor="crosshair" fill="#b12c43" r="6"/></symbol><symbol><circle id="e5" cursor="crosshair" fill="#008534" r="6"/></symbol></defs><rect width="100%" height="100%" fill="#fff" stroke-width="0px"/><path d="M300 298.5A 0 0 0 1 1 300 298.5M300 298.5A 0 0 0 1 1 300 298.5M281.17 298.5A 18.833 18.833 0 1 1 318.83 298.5M318.83 298.5A 18.833 18.833 0 1 1 281.17 298.5M262.33 298.5A 37.667 37.667 0 1 1 337.67 298.5M337.67 298.5A 37.667 37.667 0 1 1 262.33 298.5M243.5 298.5A 56.5 56.5 0 1 1 356.5 298.5M356.5 298.5A 56.5 56.5 0 1 1 243.5 298.5M224.67 298.5A 75.333 75.333 0 1 1 375.33 298.5M375.33 298.5A 75.333 75.333 0 1 1 224.67 298.5M205.83 298.5A 94.167 94.167 0 1 1 394.17 298.5M394.17 298.5A 94.167 94.167 0 1 1 205.83 298.5M187 298.5A 113 113 0 1 1 413 298.5M413 298.5A 113 113 0 1 1 187 298.5M168.17 298.5A 131.83 131.83 0 1 1 431.83 298.5M431.83 298.5A 131.83 131.83 0 1 1 168.17 298.5M149.33 298.5A 150.67 150.67 0 1 1 450.67 298.5M450.67 298.5A 150.67 150.67 0 1 1 149.33 298.5M130.5 298.5A 169.5 169.5 0 1 1 469.5 298.5M469.5 298.5A 169.5 169.5 0 1 1 130.5 298.5M111.67 298.5A 188.33 188.33 0 1 1 488.33 298.5M488.33 298.5A 188.33 188.33 0 1 1 111.67 298.5M92.833 298.5A 207.17 207.17 0 1 1 507.17 298.5M507.17 298.5A 207.17 207.17 0 1 1 92.833 298.5M74 298.5A 226 226 0 1 1 526 298.5M526 298.5A 226 226 0 1 1 74 298.5M300 298.5l2.7677E-14 -226M300 298.5l-113 -195.72M300 298.5l-195.72 -113M300 298.5l-226 -4.1516E-14M300 298.5l-195.72 113M300 298.5l-113 195.72M300 298.5l-5.5354E-14 226M300 298.5l113 195.72M300 298.5l195.72 113M300 298.5l226 6.9193E-14M300 298.5l195.72 -113M300 298.5l113 -195.72M300 298.5l8.3031E-14 -226" stroke="#666" fill="none"/><g clip-path="url(#e2)"><path fill="none" stroke-dasharray="" stroke-width="5px" stroke="#b12c43" d="M300 185.5 L394.17 135.4 397.86 242 488.33 298.5 463.1 392.67 394.17 461.6 300 486.83 205.83 461.6 136.9 392.67 111.67 298.5 136.9 204.33 205.83 135.4 z"/><path fill="none" stroke-dasharray="" stroke-width="5px" stroke="#008534" d="M300 172.69 L358.38 197.38 390.03 246.52 460.46 298.5 436.35 377.22 384.37 444.64 300 425.81 236.34 408.76 176.04 370.07 162.89 298.5 200.18 240.87 236.34 188.24 z"/></g><path d="M300 69.5l-3.6739E-16 3M185.5 100.18l1.5 2.5981M101.68 184l2.5981 1.5M71 298.5l3 5.5109E-16M101.68 413l2.5981 -1.5M185.5 496.82l1.5 -2.5981M300 527.5l7.3479E-16 -3M414.5 496.82l-1.5 -2.5981M498.32 413l-2.5981 -1.5M529 298.5l-3 -9.1849E-16M498.32 184l-2.5981 1.5M414.5 100.18l-1.5 2.5981M300 69.5l-1.1022E-15 3M303 298.5l-6 -1.1022E-15M303 279.67l-6 -1.1022E-15M303 260.83l-6 -1.1022E-15M303 242l-6 -1.1022E-15M303 223.17l-6 -1.1022E-15M303 204.33l-6 -1.1022E-15M303 185.5l-6 -1.1022E-15M303 166.67l-6 -1.1022E-15M303 147.83l-6 -1.1022E-15M303 129l-6 -1.1022E-15M303 110.17l-6 -1.1022E-15M303 91.333l-6 -1.1022E-15M303 72.5l-6 -1.1022E-15M302 294.73l-2 -3.6739E-16M302 290.97l-2 -3.6739E-16M302 287.2l-2 -3.6739E-16M302 283.43l-2 -3.6739E-16M302 275.9l-2 -3.6739E-16M302 272.13l-2 -3.6739E-16M302 268.37l-2 -3.6739E-16M302 264.6l-2 -3.6739E-16M302 257.07l-2 -3.6739E-16M302 253.3l-2 -3.6739E-16M302 249.53l-2 -3.6739E-16M302 245.77l-2 -3.6739E-16M302 238.23l-2 -3.6739E-16M302 234.47l-2 -3.6739E-16M302 230.7l-2 -3.6739E-16M302 226.93l-2 -3.6739E-16M302 219.4l-2 -3.6739E-16M302 215.63l-2 -3.6739E-16M302 211.87l-2 -3.6739E-16M302 208.1l-2 -3.6739E-16M302 200.57l-2 -3.6739E-16M302 196.8l-2 -3.6739E-16M302 193.03l-2 -3.6739E-16M302 189.27l-2 -3.6739E-16M302 181.73l-2 -3.6739E-16M302 177.97l-2 -3.6739E-16M302 174.2l-2 -3.6739E-16M302 170.43l-2 -3.6739E-16M302 162.9l-2 -3.6739E-16M302 159.13l-2 -3.6739E-16M302 155.37l-2 -3.6739E-16M302 151.6l-2 -3.6739E-16M302 144.07l-2 -3.6739E-16M302 140.3l-2 -3.6739E-16M302 136.53l-2 -3.6739E-16M302 132.77l-2 -3.6739E-16M302 125.23l-2 -3.6739E-16M302 121.47l-2 -3.6739E-16M302 117.7l-2 -3.6739E-16M302 113.93l-2 -3.6739E-16M302 106.4l-2 -3.6739E-16M302 102.63l-2 -3.6739E-16M302 98.867l-2 -3.6739E-16M302 95.1l-2 -3.6739E-16M302 87.567l-2 -3.6739E-16M302 83.8l-2 -3.6739E-16M302 80.033l-2 -3.6739E-16M302 76.267l-2 -3.6739E-16" stroke-width="1px" stroke="#666"/><g stroke="#666" stroke-width="2px"><path d="M74 298.5A 226 226 0 1 1 526 298.5M526 298.5A 226 226 0 1 1 74 298.5" fill="none"/><path d="M300 298.5l2.7922E-14 -228"/></g><g font-size="14px" font-family="Georgia" fill="#666"><g text-anchor="end"><text x="295" y="298.5">0.5</text><text x="295" y="279.67">0.75</text><text x="295" y="260.83">1</text><text x="295" y="242">1.25</text><text x="295" y="223.17">1.5</text><text x="295" y="204.33">1.75</text><text x="295" y="185.5">2</text><text x="295" y="166.67">2.25</text><text x="295" y="147.83">2.5</text><text x="295" y="129">2.75</text><text x="295" y="110.17">3</text><text x="295" y="91.333">3.25</text><text x="295" y="72.5">3.5</text></g><text x="300" y="56.3" text-anchor="middle">C1</text><text x="415.5" y="94.248" text-anchor="start">C2</text><text x="500.05" y="178.8" text-anchor="start">C3</text><text x="531" y="301.3" text-anchor="start">C4</text><text x="500.05" y="423.8" text-anchor="start">C5</text><text x="415.5" y="508.35" text-anchor="start">C6</text><text x="300" y="539.3" text-anchor="middle">C7</text><text x="184.5" y="508.35" text-anchor="end">C8</text><text x="99.948" y="423.8" text-anchor="end">C9</text><text x="69" y="301.3" text-anchor="end">C10</text><text x="99.948" y="178.8" text-anchor="end">C11</text><text x="184.5" y="94.248" text-anchor="end">C12</text></g><use x="300" y="185.5" xlink:href="#e3" id="e7"></use><use x="394.17" y="135.4" xlink:href="#e3" id="e8"></use><use x="397.86" y="242" xlink:href="#e3" id="e9"></use><use x="488.33" y="298.5" xlink:href="#e3" id="ea"></use><use x="463.1" y="392.67" xlink:href="#e3" id="eb"></use><use x="394.17" y="461.6" xlink:href="#e3" id="ec"></use><use x="300" y="486.83" xlink:href="#e3" id="ed"></use><use x="205.83" y="461.6" xlink:href="#e3" id="ee"></use><use x="136.9" y="392.67" xlink:href="#e3" id="ef"></use><use x="111.67" y="298.5" xlink:href="#e3" id="eg"></use><use x="136.9" y="204.33" xlink:href="#e3" id="eh"></use><use x="205.83" y="135.4" xlink:href="#e3" id="ei"></use><use x="300" y="172.69" xlink:href="#e5" id="ej"></use><use x="358.38" y="197.38" xlink:href="#e5" id="ek"></use><use x="390.03" y="246.52" xlink:href="#e5" id="el"></use><use x="460.46" y="298.5" xlink:href="#e5" id="em"></use><use x="436.35" y="377.22" xlink:href="#e5" id="en"></use><use x="384.37" y="444.64" xlink:href="#e5" id="eo"></use><use x="300" y="425.81" xlink:href="#e5" id="ep"></use><use x="236.34" y="408.76" xlink:href="#e5" id="eq"></use><use x="176.04" y="370.07" xlink:href="#e5" id="er"></use><use x="162.89" y="298.5" xlink:href="#e5" id="es"></use><use x="200.18" y="240.87" xlink:href="#e5" id="et"></use><use x="236.34" y="188.24" xlink:href="#e5" id="eu"></use><g font-family="sans-serif" font-size="15px" fill="#666" transform="translate(150,550)" id="ev"><rect fill="white" width="317" height="50"/><text x="158.5" y="16.25" text-anchor="middle" font-weight="bold">Legend</text><g transform="translate(5,0)"><path fill="none" stroke-dasharray="" stroke-width="5px" stroke="#b12c43" d="M0 35l20 0"/><use x="10" y="35" xlink:href="#e3"></use></g><g transform="translate(161,0)"><path fill="none" stroke-dasharray="" stroke-width="5px" stroke="#008534" d="M0 35l20 0"/><use x="10" y="35" xlink:href="#e5"></use></g><g transform="translate(30,0)"><text x="0" y="38.75">Required Level</text></g><g transform="translate(186,0)"><text x="0" y="38.75">Assessed Level</text></g></g></svg>
