<svg  version="1.1" xmlns:xlink="http://www.w3.org/1999/xlink" xmlns="http://www.w3.org/2000/svg"  width="450" height="75">
				<line x1="10" y1="00" x2="10" y2="65" stroke="#666666" stroke-width="1"  />
				<text x="10" y="72" font-style="normal" font-size="0.5em">0</text>
				<line x1="50" y1="15" x2="50" y2="65" stroke="#666666" stroke-width="0.2"  />
				<text x="50" y="72" font-style="normal" font-size="0.5em">10</text>
				<line x1="90" y1="15" x2="90" y2="65" stroke="#666666" stroke-width="0.2"  />
				<text x="90" y="72" font-style="normal" font-size="0.5em">20</text>
				<line x1="130" y1="15" x2="130" y2="65" stroke="#666666" stroke-width="0.2"  />
				<text x="130" y="72" font-style="normal" font-size="0.5em">30</text>
				<line x1="170" y1="15" x2="170" y2="65" stroke="#666666" stroke-width="0.2"  />
				<text x="170" y="72" font-style="normal" font-size="0.5em">40</text>
				<line x1="210" y1="15" x2="210" y2="65" stroke="#666666" stroke-width="0.2"  />
				<text x="210" y="72" font-style="normal" font-size="0.5em">50</text>
				<line x1="250" y1="15" x2="250" y2="65" stroke="#666666" stroke-width="0.2"  />
				<text x="250" y="72" font-style="normal" font-size="0.5em">60</text>
				<line x1="290" y1="15" x2="290" y2="65" stroke="#666666" stroke-width="0.2"  />
				<text x="290" y="72" font-style="normal" font-size="0.5em">70</text>
				<line x1="330" y1="15" x2="330" y2="65" stroke="#666666" stroke-width="0.2"  />
				<text x="330" y="72" font-style="normal" font-size="0.5em">80</text>
				<line x1="370" y1="15" x2="370" y2="65" stroke="#666666" stroke-width="0.2"  />
				<text x="370" y="72" font-style="normal" font-size="0.5em">90</text>
				<line x1="410" y1="15" x2="410" y2="65" stroke="#666666" stroke-width="0.2"  />
				<text x="410" y="72" font-style="normal" font-size="0.5em">100</text>
				<line x1="10" y1="65" x2="410" y2="65" stroke="#666666" stroke-width="1"  /><text x="10" y="7" font-style="normal" font-size="0.5em">Managerial & Behavioural (43.25)</text>
					<rect x="10" y="10" width="100" height="20" rx="5" fill="#cccccc"  />
					<rect x="10" y="10" width="43.25" height="20" rx="5"  fill="green"  /><text x="110" y="7" font-style="normal" font-size="0.5em">Functional & Technical (54)</text>
					<rect x="110" y="10" width="100" height="20" rx="5" fill="#cccccc"  />
					<rect x="110" y="10" width="54" height="20" rx="5"  fill="gold"  /><rect x="10" y="35" width="400" height="20" fill="#cccccc"  />
				<rect x="10" y="42" width="389" height="6" fill="blue"  />

			</svg>