<svg width="700" height="500" version="1.1" xmlns:xlink="http://www.w3.org/1999/xlink" xmlns="http://www.w3.org/2000/svg"><defs><clipPath id="ex"><rect x="13" y="49" width="677" height="424"/></clipPath><symbol><circle id="ey" cursor="crosshair" fill="#11c" opacity="0.5" r="6"/></symbol><symbol><circle id="e10" cursor="crosshair" fill="#c11" opacity="0.5" r="6"/></symbol></defs><rect width="100%" height="100%" fill="#fff" stroke-width="0px"/><text font-size="12px" font-family="sans-serif" font-weight="bold" text-anchor="middle" fill="black" x="350" y="22">SELF VS OTHERS</text><path d="M351.5 261L351.5 261 351.5 261 351.5 261 351.5 261 351.5 261 351.5 261 351.5 261 351.5 261 351.5 261 351.5 261 351.5 261 351.5 261 351.5 261 zM351.5 208L351.5 208 325 215.1 305.6 234.5 298.5 261 305.6 287.5 325 306.9 351.5 314 378 306.9 397.4 287.5 404.5 261 397.4 234.5 378 215.1 351.5 208 zM351.5 155L351.5 155 298.5 169.2 259.7 208 245.5 261 259.7 314 298.5 352.8 351.5 367 404.5 352.8 443.3 314 457.5 261 443.3 208 404.5 169.2 351.5 155 zM351.5 102L351.5 102 272 123.3 213.8 181.5 192.5 261 213.8 340.5 272 398.7 351.5 420 431 398.7 489.2 340.5 510.5 261 489.2 181.5 431 123.3 351.5 102 zM351.5 49L351.5 49 245.5 77.403 167.9 155 139.5 261 167.9 367 245.5 444.6 351.5 473 457.5 444.6 535.1 367 563.5 261 535.1 155 457.5 77.403 351.5 49 zM351.5 261l2.5963E-14 -212M351.5 261l-106 -183.6M351.5 261l-183.6 -106M351.5 261l-212 -3.8944E-14M351.5 261l-183.6 106M351.5 261l-106 183.6M351.5 261l-5.1925E-14 212M351.5 261l106 183.6M351.5 261l183.6 106M351.5 261l212 6.4906E-14M351.5 261l183.6 -106M351.5 261l106 -183.6M351.5 261l7.7888E-14 -212" stroke="#c1c1c1" fill="none"/><g clip-path="url(#ex)"><path fill="none" stroke-dasharray="" stroke-width="2px" stroke="#11c" d="M351.5 49 L448.67 92.701 504.5 172.67 510.5 261 535.1 367 431 398.7 351.5 437.66 245.5 444.6 198.5 349.33 157.16 261 183.2 163.83 254.33 92.701 z"/><path fill="none" stroke-dasharray="" stroke-width="2px" stroke="#c11" d="M351.5 90.223 L427.08 130.1 479 187.39 496.76 261 490.9 341.48 427.08 391.9 351.5 421.96 280.83 383.4 231.45 330.31 180.72 261 239.3 196.22 275.06 128.6 z"/></g><path d="M351.5 46l-3.6739E-16 3M244 74.805l1.5 2.5981M165.3 153.5l2.5981 1.5M136.5 261l3 5.5109E-16M165.3 368.5l2.5981 -1.5M244 447.2l1.5 -2.5981M351.5 476l7.3479E-16 -3M459 447.2l-1.5 -2.5981M537.7 368.5l-2.5981 -1.5M566.5 261l-3 -9.1849E-16M537.7 153.5l-2.5981 1.5M459 74.805l-1.5 2.5981M351.5 46l-1.1022E-15 3M354.5 261l-6 -1.1022E-15M354.5 208l-6 -1.1022E-15M354.5 155l-6 -1.1022E-15M354.5 102l-6 -1.1022E-15M354.5 49l-6 -1.1022E-15" stroke-width="1px" stroke="#666"/><g stroke="#666" stroke-width="0px"><path d="M351.5 49L351.5 49 245.5 77.403 167.9 155 139.5 261 167.9 367 245.5 444.6 351.5 473 457.5 444.6 535.1 367 563.5 261 535.1 155 457.5 77.403 351.5 49 z" fill="none"/><path d="M351.5 261l2.6207E-14 -214"/></g><g font-size="12px" font-family="Georgia" fill="#666"><g text-anchor="end"><text x="346.5" y="261">0</text><text x="346.5" y="208">1</text><text x="346.5" y="155">2</text><text x="346.5" y="102">3</text><text x="346.5" y="49">4</text></g><text x="351.5" y="34.4" text-anchor="middle">C1</text><text x="460" y="69.472" text-anchor="start">C2</text><text x="539.43" y="148.9" text-anchor="start">C3</text><text x="568.5" y="263.4" text-anchor="start">C4</text><text x="539.43" y="377.9" text-anchor="start">C5</text><text x="460" y="457.33" text-anchor="start">C6</text><text x="351.5" y="486.4" text-anchor="middle">C7</text><text x="243" y="457.33" text-anchor="end">C8</text><text x="163.57" y="377.9" text-anchor="end">C9</text><text x="134.5" y="263.4" text-anchor="end">C10</text><text x="163.57" y="148.9" text-anchor="end">C11</text><text x="243" y="69.472" text-anchor="end">C12</text></g><use x="351.5" y="49" xlink:href="#ey" id="e12"></use><use x="448.67" y="92.701" xlink:href="#ey" id="e13"></use><use x="504.5" y="172.67" xlink:href="#ey" id="e14"></use><use x="510.5" y="261" xlink:href="#ey" id="e15"></use><use x="535.1" y="367" xlink:href="#ey" id="e16"></use><use x="431" y="398.7" xlink:href="#ey" id="e17"></use><use x="351.5" y="437.66" xlink:href="#ey" id="e18"></use><use x="245.5" y="444.6" xlink:href="#ey" id="e19"></use><use x="198.5" y="349.33" xlink:href="#ey" id="e1a"></use><use x="157.16" y="261" xlink:href="#ey" id="e1b"></use><use x="183.2" y="163.83" xlink:href="#ey" id="e1c"></use><use x="254.33" y="92.701" xlink:href="#ey" id="e1d"></use><use x="351.5" y="90.223" xlink:href="#e10" id="e1e"></use><use x="427.08" y="130.1" xlink:href="#e10" id="e1f"></use><use x="479" y="187.39" xlink:href="#e10" id="e1g"></use><use x="496.76" y="261" xlink:href="#e10" id="e1h"></use><use x="490.9" y="341.48" xlink:href="#e10" id="e1i"></use><use x="427.08" y="391.9" xlink:href="#e10" id="e1j"></use><use x="351.5" y="421.96" xlink:href="#e10" id="e1k"></use><use x="280.83" y="383.4" xlink:href="#e10" id="e1l"></use><use x="231.45" y="330.31" xlink:href="#e10" id="e1m"></use><use x="180.72" y="261" xlink:href="#e10" id="e1n"></use><use x="239.3" y="196.22" xlink:href="#e10" id="e1o"></use><use x="275.06" y="128.6" xlink:href="#e10" id="e1p"></use><g font-family="sans-serif" font-size="10px" fill="#aaa" transform="translate(0,470)" id="e1q"><rect fill="white" width="137" height="30" stroke-width="1px" stroke="#aaa"/><g transform="translate(5,0)"><path fill="none" stroke-dasharray="" stroke-width="2px" stroke="#11c" d="M0 15l20 0"/><use x="10" y="15" xlink:href="#ey"></use></g><g transform="translate(71,0)"><path fill="none" stroke-dasharray="" stroke-width="2px" stroke="#c11" d="M0 15l20 0"/><use x="10" y="15" xlink:href="#e10"></use></g><g transform="translate(30,0)"><text x="0" y="17.5">Self</text></g><g transform="translate(96,0)"><text x="0" y="17.5">Others</text></g></g></svg>
