<svg width="500" height="500" version="1.1" xmlns:xlink="http://www.w3.org/1999/xlink" onload="init()" xmlns="http://www.w3.org/2000/svg"><defs><clipPath id="e2"><rect x="61" y="10" width="378" height="477"/></clipPath><symbol><circle id="e3" cursor="crosshair" fill="#b12c43" r="5"/></symbol><symbol><circle id="e5" cursor="crosshair" fill="#008534" r="5"/></symbol></defs><rect width="100%" height="100%" fill="#eee" stroke-width="0px"/><path d="M250 248.5A 0 0 0 1 1 250 248.5M250 248.5A 0 0 0 1 1 250 248.5M234.25 248.5A 15.75 15.75 0 1 1 265.75 248.5M265.75 248.5A 15.75 15.75 0 1 1 234.25 248.5M218.5 248.5A 31.5 31.5 0 1 1 281.5 248.5M281.5 248.5A 31.5 31.5 0 1 1 218.5 248.5M202.75 248.5A 47.25 47.25 0 1 1 297.25 248.5M297.25 248.5A 47.25 47.25 0 1 1 202.75 248.5M187 248.5A 63 63 0 1 1 313 248.5M313 248.5A 63 63 0 1 1 187 248.5M171.25 248.5A 78.75 78.75 0 1 1 328.75 248.5M328.75 248.5A 78.75 78.75 0 1 1 171.25 248.5M155.5 248.5A 94.5 94.5 0 1 1 344.5 248.5M344.5 248.5A 94.5 94.5 0 1 1 155.5 248.5M139.75 248.5A 110.25 110.25 0 1 1 360.25 248.5M360.25 248.5A 110.25 110.25 0 1 1 139.75 248.5M124 248.5A 126 126 0 1 1 376 248.5M376 248.5A 126 126 0 1 1 124 248.5M108.25 248.5A 141.75 141.75 0 1 1 391.75 248.5M391.75 248.5A 141.75 141.75 0 1 1 108.25 248.5M92.5 248.5A 157.5 157.5 0 1 1 407.5 248.5M407.5 248.5A 157.5 157.5 0 1 1 92.5 248.5M76.75 248.5A 173.25 173.25 0 1 1 423.25 248.5M423.25 248.5A 173.25 173.25 0 1 1 76.75 248.5M61 248.5A 189 189 0 1 1 439 248.5M439 248.5A 189 189 0 1 1 61 248.5M250 248.5l2.3146E-14 -189M250 248.5l-147.77 -117.84M250 248.5l-184.26 42.056M250 248.5l-82.004 170.28M250 248.5l82.004 170.28M250 248.5l184.26 42.056M250 248.5l147.77 -117.84M250 248.5l6.9437E-14 -189" stroke="#666" fill="none"/><g clip-path="url(#e2)"><path fill="none" stroke-dasharray="" stroke-width="2px" stroke="#b12c43" d="M250 122.5 L126.86 150.3 96.449 283.55 181.66 390.4 304.67 362.02 372.84 276.54 348.51 169.94 z"/><path fill="none" stroke-dasharray="" stroke-width="2px" stroke="#008534" d="M250 106.75 L131.05 153.64 101.36 282.43 193.83 365.14 305.76 364.29 384.82 279.27 356.64 163.46 z"/></g><path d="M250 56.5l-3.6739E-16 3M99.888 128.79l2.3455 1.8705M62.814 291.22l2.9248 -0.66756M166.69 421.49l1.3017 -2.7029M333.31 421.49l-1.3017 -2.7029M437.19 291.22l-2.9248 -0.66756M400.11 128.79l-2.3455 1.8705M250 56.5l-1.1022E-15 3M253 248.5l-6 -1.1022E-15M253 232.75l-6 -1.1022E-15M253 217l-6 -1.1022E-15M253 201.25l-6 -1.1022E-15M253 185.5l-6 -1.1022E-15M253 169.75l-6 -1.1022E-15M253 154l-6 -1.1022E-15M253 138.25l-6 -1.1022E-15M253 122.5l-6 -1.1022E-15M253 106.75l-6 -1.1022E-15M253 91l-6 -1.1022E-15M253 75.25l-6 -1.1022E-15M253 59.5l-6 -1.1022E-15" stroke-width="1px" stroke="#333"/><g stroke="#333" stroke-width="2px"><path d="M61 248.5A 189 189 0 1 1 439 248.5M439 248.5A 189 189 0 1 1 61 248.5" fill="none"/><path d="M250 248.5l2.3391E-14 -191"/></g><g font-size="10px" font-family="Georgia" fill="#333"><g text-anchor="end"><text x="245" y="248.5">0</text><text x="245" y="232.75">0.5</text><text x="245" y="217">1</text><text x="245" y="201.25">1.5</text><text x="245" y="185.5">2</text><text x="245" y="169.75">2.5</text><text x="245" y="154">3</text><text x="245" y="138.25">3.5</text><text x="245" y="122.5">4</text><text x="245" y="106.75">4.5</text><text x="245" y="91">5</text><text x="245" y="75.25">5.5</text><text x="245" y="59.5">6</text></g><text x="250" y="46.5" text-anchor="middle">Q1</text><text x="98.325" y="124.54" text-anchor="end">Employee Development</text><text x="60.864" y="298.67" text-anchor="end">Team Orientation</text><text x="165.83" y="430.29" text-anchor="end">Q4</text><text x="334.17" y="430.29" text-anchor="start">Q5</text><text x="439.14" y="298.67" text-anchor="start">Q6</text><text x="401.68" y="124.54" text-anchor="start">Outcome Orientation</text></g><use x="250" y="122.5" xlink:href="#e3" id="e7"/><use x="126.86" y="150.3" xlink:href="#e3" id="e8"/><use x="96.449" y="283.55" xlink:href="#e3" id="e9"/><use x="181.66" y="390.4" xlink:href="#e3" id="ea"/><use x="304.67" y="362.02" xlink:href="#e3" id="eb"/><use x="372.84" y="276.54" xlink:href="#e3" id="ec"/><use x="348.51" y="169.94" xlink:href="#e3" id="ed"/><use x="250" y="106.75" xlink:href="#e5" id="ee"/><use x="131.05" y="153.64" xlink:href="#e5" id="ef"/><use x="101.36" y="282.43" xlink:href="#e5" id="eg"/><use x="193.83" y="365.14" xlink:href="#e5" id="eh"/><use x="305.76" y="364.29" xlink:href="#e5" id="ei"/><use x="384.82" y="279.27" xlink:href="#e5" id="ej"/><use x="356.64" y="163.46" xlink:href="#e5" id="ek"/><g cursor="move"><g font-family="sans-serif" font-size="10px" fill="black" transform="translate(130,460)" id="el"><rect fill="white" width="233" height="30" stroke-width="1px" stroke="black"/><g transform="translate(5,0)"><path fill="none" stroke-dasharray="" stroke-width="2px" stroke="#b12c43" d="M0 15l20 0"/><use x="10" y="15" xlink:href="#e3"/></g><g transform="translate(119,0)"><path fill="none" stroke-dasharray="" stroke-width="2px" stroke="#008534" d="M0 15l20 0"/><use x="10" y="15" xlink:href="#e5"/></g><g transform="translate(30,0)"><text x="0" y="17.5">Self</text></g><g transform="translate(144,0)"><text x="0" y="17.5">Averaged Score</text></g></g></g><g id="tooltip" visibility="hidden" transform="translate(194 400)"><rect fill="#000" opacity="0.3" x="1.5px" y="1.5px" width="35px" height="19px" id="ttshdw" rx="0px" ry="0px"/><rect stroke="black" stroke-width="1px" fill="#ffffcc" width="34px" height="18px" id="ttrect" rx="0px" ry="0px"/><g id="tooltiptext" fill="black" font-size="10px" font-family="sans-serif" font-weight="normal" text-anchor="middle" visibility="hidden" transform="translate(17,0)"><text y="13px">Q4, 5</text></g></g></svg>