
<svg width="275" height="950">
<rect x="0" y="0" rx="0" ry="0" width="275" height="950" fill="white" />
<line x1="25" y1="0" x2="25" y2="919" style="stroke:rgb(0,0,0);stroke-width:1" />
<line x1="25" y1="20" x2="250" y2="20" style="stroke:rgb(155,155,155);stroke-width:1" />
<line x1="25" y1="169" x2="250" y2="169" style="stroke:rgb(155,155,155);stroke-width:1" />
<line x1="25" y1="319" x2="250" y2="319" style="stroke:rgb(155,155,155);stroke-width:1" />
<line x1="25" y1="469" x2="250" y2="469" style="stroke:rgb(155,155,155);stroke-width:1" />
<line x1="25" y1="619" x2="250" y2="619" style="stroke:rgb(155,155,155);stroke-width:1" />
<line x1="25" y1="769" x2="250" y2="769" style="stroke:rgb(155,155,155);stroke-width:1" />
<line x1="25" y1="919" x2="250" y2="919" style="stroke:rgb(0,0,0);stroke-width:1" />
  <defs>
    <linearGradient id="grad5" x1="0%" y1="0%" x2="0%" y2="100%">
    	<stop offset="0%" style="stop-color:rgb(150,0,0);stop-opacity:1" />
        <stop offset="70%" style="stop-color:rgb(255,0,0);stop-opacity:1" />
      <stop offset="100%" style="stop-color:rgb(255,255,255);stop-opacity:1" />
    </linearGradient>
  </defs>
  <rect x="120" y="20" rx="0" ry="0" width="50" height="320"  fill="url(#grad5)" />
  <rect x="120" y="20" rx="0" ry="0" width="50" height="75" fill="white" />
  <text x="95" y="38" style="fill:rgb(155,155,155);font-size:20px;">40</text>
  <text x="105" y="318" style="fill:rgb(155,155,155);font-size:20px;">0</text>
  
  <text x="175" y="338" style="fill:rgb(155,155,155);font-size:20px;">40</text>
  <text x="175" y="618" style="fill:rgb(155,155,155);font-size:20px;">0</text>
  
  <text x="95" y="638" style="fill:rgb(155,155,155);font-size:20px;">40</text>
  <text x="105" y="918" style="fill:rgb(155,155,155);font-size:20px;">0</text>
  <defs>
    <linearGradient id="grad6" x1="0%" y1="0%" x2="0%" y2="100%">
    <stop offset="0%" style="stop-color:rgb(255,130,0);stop-opacity:1" />
    <stop offset="70%" style="stop-color:rgb(255,180,0);stop-opacity:1" />
      <stop offset="100%" style="stop-color:rgb(255,255,255);stop-opacity:1" />
    </linearGradient>
  </defs>
  <rect x="120" y="319" rx="0" ry="0" width="50" height="300" fill="url(#grad6)" />
  <rect x="120" y="319" rx="0" ry="0" width="50" height="150" fill="white" />
  <defs>
    <linearGradient id="grad7" x1="0%" y1="0%" x2="0%" y2="100%">
      <stop offset="0%" style="stop-color:rgb(0,150,0);stop-opacity:1" />
      <stop offset="70%" style="stop-color:rgb(0,200,0);stop-opacity:1" />
      <stop offset="100%" style="stop-color:rgb(255,255,255);stop-opacity:1" />
    </linearGradient>
  </defs>
  <rect x="120" y="618" rx="0" ry="0" width="50" height="300" fill="url(#grad7)" />
  <rect x="120" y="618" rx="0" ry="0" width="50" height="225" fill="white" />
  <text x="80" y="168" style="fill:black;font-size:30px;">30</text>
  <text x="80" y="468" style="fill:black;font-size:30px;">20</text>
  <text x="80" y="768" style="fill:black;font-size:30px;">10</text>
  <text x="-85" y="185" style="fill:black;font-size:24px;" transform="rotate(270,70,50)">Others</text>
  <text x="-390" y="185" style="fill:black;font-size:24px;" transform="rotate(270,70,50)">External</text>
  <text x="-685" y="185" style="fill:black;font-size:24px;" transform="rotate(270,70,50)">Internal</text>
  Sorry, your browser does not support inline SVG.
</svg>