<svg version="1.1" class="highcharts-root" style="font-family:&quot;Lucida Grande&quot;, &quot;Lucida Sans Unicode&quot;, Arial, Helvetica, sans-serif;font-size:12px;" xmlns="http://www.w3.org/2000/svg" width="400" height="440" viewBox="0 0 400 440"><desc>Created with Highcharts 6.1.0</desc><defs><clipPath id="highcharts-8a9vq6v-1"><rect x="0" y="0" width="380" height="363" fill="none"></rect></clipPath></defs><rect fill="#ffffff" class="highcharts-background" x="0" y="0" width="400" height="440" rx="0" ry="0"></rect><rect fill="none" class="highcharts-plot-background" x="10" y="62" width="380" height="363"></rect><g class="highcharts-pane-group"><path fill="rgba(124,181,236,0.3)" d="M 200 70.71200000000002 A 172.78799999999998 172.78799999999998 0 1 1 199.8272120287979 70.71208639399282 M 199.86423802262692 107.73806788099435 A 135.762 135.762 0 1 0 200 107.738 " class="highcharts-pane "></path><path fill="rgba(67,67,72,0.3)" d="M 200 109.28074999999998 A 134.21925000000002 134.21925000000002 0 1 1 199.86578077236982 109.28081710961939 M 199.90280676619884 146.30679859662092 A 97.19325 97.19325 0 1 0 200 146.30675 " class="highcharts-pane "></path><path fill="rgba(144,237,125,0.3)" d="M 200 147.84949999999998 A 95.65050000000001 95.65050000000001 0 1 1 199.9043495159417 147.84954782524602 M 199.94137550977072 184.87552931224755 A 58.6245 58.6245 0 1 0 200 184.8755 " class="highcharts-pane "></path></g><g class="highcharts-grid highcharts-yaxis-grid "></g><rect fill="none" class="highcharts-plot-border" x="10" y="62" width="380" height="363"></rect><g class="highcharts-axis highcharts-yaxis "><path fill="none" class="highcharts-axis-line" d="M 200 89.225 A 154.275 154.275 0 1 1 199.84572502571243 89.22507713749357 M 200 243.5 A 0 0 0 1 0 200 243.5 "></path></g><g class="highcharts-series-group"><g class="highcharts-series highcharts-series-0 highcharts-solidgauge-series highcharts-tracker" transform="translate(10,62) scale(1 1)" clip-path="url(https://www.highcharts.com/demo/gauge-activity#highcharts-8a9vq6v-1)"><path fill="#7cb5ec" d="M 190 8.712000000000018 A 172.78799999999998 172.78799999999998 0 1 1 25.615534408437867 128.26992939910267 A 18.51299999999999 18.51299999999999 0 1 1 60.84077703520117 139.67637309929495 A 135.762 135.762 0 1 0 190 45.738 A 18.51299999999999 18.51299999999999 0 1 1 190 8.712000000000018 Z" class="highcharts-point highcharts-color-0" sweep-flag="0" stroke-linecap="round" stroke-linejoin="round"></path></g><g class="highcharts-markers highcharts-series-0 highcharts-solidgauge-series " transform="translate(10,62) scale(1 1)" clip-path="none"></g><g class="highcharts-series highcharts-series-1 highcharts-solidgauge-series highcharts-tracker " transform="translate(10,62) scale(1 1)" clip-path="url(https://www.highcharts.com/demo/gauge-activity#highcharts-8a9vq6v-1)"><path fill="#434348" d="M 190 47.28074999999998 A 134.21925000000002 134.21925000000002 0 1 1 81.49329215313799 260.5006419138366 A 18.513000000000005 18.513000000000005 0 1 1 111.42617707641027 238.70736138588168 A 97.19325 97.19325 0 1 0 190 84.30675 A 18.513000000000005 18.513000000000005 0 1 1 190 47.28074999999998 Z" class="highcharts-point highcharts-color-0" sweep-flag="0" stroke-linecap="round" stroke-linejoin="round"></path></g><g class="highcharts-markers highcharts-series-1 highcharts-solidgauge-series " transform="translate(10,62) scale(1 1)" clip-path="none"></g><g class="highcharts-series highcharts-series-2 highcharts-solidgauge-series highcharts-tracker " transform="translate(10,62) scale(1 1)" clip-path="url(https://www.highcharts.com/demo/gauge-activity#highcharts-8a9vq6v-1)"><path fill="#90ed7d" d="M 190 85.84949999999999 A 95.65050000000001 95.65050000000001 0 0 1 190.0956504840582 277.150452174754 A 18.513000000000005 18.513000000000005 0 1 1 190.05862449022922 240.12447068775245 A 58.6245 58.6245 0 0 0 190 122.8755 A 18.513000000000005 18.513000000000005 0 1 1 190 85.84949999999999 Z" class="highcharts-point highcharts-color-0" sweep-flag="0" stroke-linecap="round" stroke-linejoin="round"></path><path fill="none" d="M -8 0 L 8 0 M 0 -8 L 8 0 0 8" stroke-linecap="round" stroke-linejoin="round" stroke="#303030" stroke-width="2" transform="translate(190,27.22500000000001)"></path><path fill="none" d="M -8 0 L 8 0 M 0 -8 L 8 0 0 8 M 8 -8 L 16 0 8 8" stroke-linecap="round" stroke-linejoin="round" stroke="#ffffff" stroke-width="2" transform="translate(190,65.79374999999999)"></path><path fill="none" d="M 0 8 L 0 -8 M -8 0 L 0 -8 8 0" stroke-linecap="round" stroke-linejoin="round" stroke="#303030" stroke-width="2" transform="translate(190,104.3625)"></path></g><g class="highcharts-markers highcharts-series-2 highcharts-solidgauge-series " transform="translate(10,62) scale(1 1)" clip-path="none"></g></g><text x="200" text-anchor="middle" class="highcharts-title" style="color:#333333;font-size:24px;fill:#333333;" y="30"><tspan>Activity</tspan></text><text x="200" text-anchor="middle" class="highcharts-subtitle" style="color:#666666;fill:#666666;" y="61"></text><g class="highcharts-legend"><rect fill="none" class="highcharts-legend-box" rx="0" ry="0" x="0" y="0" width="8" height="8" visibility="hidden"></rect><g><g></g></g></g><g class="highcharts-axis-labels highcharts-yaxis-labels "></g><text x="390" class="highcharts-credits" text-anchor="end" style="cursor:pointer;color:#999999;font-size:9px;fill:#999999;" y="435">Highcharts.com</text><g class="highcharts-label highcharts-tooltip highcharts-color-0" style="cursor:default;pointer-events:none;white-space:nowrap;" transform="translate(160,-9999)" opacity="0" visibility="visible"><path fill="none" class="highcharts-label-box highcharts-tooltip-box" d="M 3 0 L 78 0 C 81 0 81 0 81 3 L 81 83 C 81 86 81 86 78 86 L 3 86 C 0 86 0 86 0 83 L 0 3 C 0 0 0 0 3 0"></path><text x="8" style="font-size:16px;color:#333333;fill:#333333;" y="23"><tspan>Exercise</tspan><tspan style="font-size:2em; fill: #434348; font-weight: bold" x="8" dy="38">65%</tspan></text></g></svg>