<svg version="1.1" class="highcharts-root" style="font-family:&quot;Lucida Grande&quot;, &quot;Lucida Sans Unicode&quot;, Arial, Helvetica, sans-serif;font-size:12px;" xmlns="http://www.w3.org/2000/svg" width="800" height="500" viewBox="0 0 800 500"><desc>Created with Highcharts 6.1.0</desc><defs><clipPath id="highcharts-bww5c3g-1"><rect x="0" y="0" width="780" height="432" fill="none"></rect></clipPath></defs><rect fill="#ffffff" class="highcharts-background" x="0" y="0" width="800" height="500" rx="0" ry="0"></rect><rect fill="none" class="highcharts-plot-background" x="10" y="53" width="780" height="432"></rect><rect fill="none" class="highcharts-plot-border" x="10" y="53" width="780" height="432"></rect><g class="highcharts-series-group"><g class="highcharts-series highcharts-series-0 highcharts-variablepie-series highcharts-tracker " transform="translate(10,53) scale(1 1)"><path fill="#7cb5ec" visibility="hidden" d="M 389.96995820245496 70.00000305935461 A 147.5 147.5 0 0 1 536.8488246939932 203.6554095043273 L 535.8532394418305 203.74927113480646 A 146.5 146.5 0 0 0 389.9701618756587 71.00000303861322 Z" class="highcharts-halo highcharts-color-0" fill-opacity="0.25"></path><path fill="rgb(124,181,236)" d="M 389.96995820245496 70.00000305935461 A 147.5 147.5 0 0 1 536.8488246939932 203.6554095043273 L 430.719436813453 213.6610593134033 A 40.9 40.9 0 0 0 389.9916697659689 176.60000084832274 Z" transform="translate(0,0)" stroke="#ffffff" stroke-width="1" stroke-linejoin="round" class="highcharts-point highcharts-color-0 "></path><path fill="rgb(67,67,72)" d="M 549.3085785575865 202.641440246065 A 160 160 0 0 1 398.1239175893727 377.29362303609327 L 392.0766764337834 258.3472448886013 A 40.9 40.9 0 0 0 430.72325539378306 213.70178066290038 Z" transform="translate(0,0)" stroke="#ffffff" stroke-width="1" stroke-linejoin="round" class="highcharts-point highcharts-color-1 "></path><path fill="rgb(144,237,125)" d="M 398.11344717971684 380.2979483128149 A 163 163 0 0 1 266.13159472936786 323.4510178134709 L 358.91890935233835 244.0852553900059 A 40.9 40.9 0 0 0 392.03582815736456 258.3493011410683 Z" transform="translate(0,0)" stroke="#ffffff" stroke-width="1" stroke-linejoin="round" class="highcharts-point highcharts-color-2 "></path><path fill="rgb(247,163,92)" d="M 261.84252395266657 326.8979494011527 A 168.5 168.5 0 0 1 240.27709871970256 294.8000830026094 L 353.6577646150495 236.26304685345238 A 40.9 40.9 0 0 0 358.89233964192323 244.05416101191184 Z" transform="translate(0,0)" stroke="#ffffff" stroke-width="1" stroke-linejoin="round" class="highcharts-point highcharts-color-3 "></path><path fill="rgb(128,133,233)" d="M 217.97433545628402 306.0969567101089 A 193.5 193.5 0 0 1 212.10853191584044 141.36278450808408 L 352.39916772794766 201.406914141502 A 40.9 40.9 0 0 0 353.63901974243936 236.2266952426018 Z" transform="translate(0,0)" stroke="#ffffff" stroke-width="1" stroke-linejoin="round" class="highcharts-point highcharts-color-4 "></path><path fill="rgb(241,92,128)" d="M 208.5089907892143 139.6073586553229 A 197.5 197.5 0 0 1 219.13885875263384 118.44082368781991 L 354.6166041670011 196.9859731080093 A 40.9 40.9 0 0 0 352.41527961153855 201.36932136203902 Z" transform="translate(0,0)" stroke="#ffffff" stroke-width="1" stroke-linejoin="round" class="highcharts-point highcharts-color-5 "></path><path fill="rgb(228,211,84)" d="M 213.18567941085277 114.75299987543056 A 204.5 204.5 0 0 1 389.71595360266434 13.00019726746882 L 389.94319072053287 176.60003945349376 A 40.9 40.9 0 0 0 354.6371358821706 196.9505999750861 Z" transform="translate(0,0)" stroke="#ffffff" stroke-width="1" stroke-linejoin="round" class="highcharts-point highcharts-color-6 "></path></g><g class="highcharts-markers highcharts-series-0 highcharts-variablepie-series " transform="translate(10,53) scale(1 1)"></g></g><text x="400" text-anchor="middle" class="highcharts-title" style="color:#333333;font-size:18px;fill:#333333;" y="24"><tspan>Countries compared by population density and total area.</tspan></text><text x="400" text-anchor="middle" class="highcharts-subtitle" style="color:#666666;fill:#666666;" y="52"></text><g class="highcharts-data-labels highcharts-series-0 highcharts-variablepie-series highcharts-tracker " transform="translate(10,53) scale(1 1)" opacity="1"><path fill="none" class="highcharts-data-label-connector highcharts-color-0" stroke="#7cb5ec" stroke-width="1" d="M 514.5702104343468 86.31610321123249 C 509.57021043434685 86.31610321123249 497.4447806438216 99.61925894192441 493.4029707136465 104.05364418548838 L 489.36116078347135 108.48802942905235"></path><path fill="none" class="highcharts-data-label-connector highcharts-color-1" stroke="#434348" stroke-width="1" d="M 538.5899045685919 341.92644134581144 C 533.5899045685919 341.92644134581144 519.9866504515675 330.13867321831356 515.4522324125593 326.2094171758142 L 510.9178143735511 322.2801611333149"></path><path fill="none" class="highcharts-data-label-connector highcharts-color-2" stroke="#90ed7d" stroke-width="1" d="M 308.5795050360513 394.7255849178247 C 313.5795050360513 394.7255849178247 320.70680508450255 378.19677388921923 323.0825717673196 372.68717021301745 L 325.4583384501367 367.1775665368157"></path><path fill="none" class="highcharts-data-label-connector highcharts-color-3" stroke="#f7a35c" stroke-width="1" d="M 220.17183806554883 328.1070840105205 C 225.17183806554883 328.1070840105205 240.11847239713637 318.07722248815594 245.10068384099887 314.7339353140344 L 250.08289528486137 311.39064813991286"></path><path fill="none" class="highcharts-data-label-connector highcharts-color-4" stroke="#8085e9" stroke-width="1" d="M 161.63660863092235 225.3131553231867 C 166.63660863092235 225.3131553231867 184.62560659353264 224.6839079146079 190.62193924773607 224.47415877841496 L 196.6182719019395 224.26440964222203"></path><path fill="none" class="highcharts-data-label-connector highcharts-color-5" stroke="#f15c80" stroke-width="1" d="M 181.77003803806832 115.25601454876772 C 186.77003803806832 115.25601454876772 202.84977129219914 123.34564856249162 208.20968237690943 126.0421932337329 L 213.56959346161972 128.7387379049742"></path><path fill="none" class="highcharts-data-label-connector highcharts-color-6" stroke="#e4d354" stroke-width="1" d="M 268.04362155839203 14.247803107018328 C 273.04362155839203 14.247803107018328 282.02108344303576 29.849251056159773 285.013570737917 35.04973370587359 L 288.00605803279825 40.25021635558741"></path><g class="highcharts-label highcharts-data-label highcharts-data-label-color-0 " transform="translate(520,76)"><text x="5" style="font-size:11px;font-weight:bold;color:#000000;fill:#000000;" y="16"><tspan x="5" y="16" class="highcharts-text-outline" fill="#FFFFFF" stroke="#FFFFFF" stroke-width="2px" stroke-linejoin="round" style="">Spain</tspan><tspan x="5" y="16">Spain</tspan></text></g><g class="highcharts-label highcharts-data-label highcharts-data-label-color-1 " transform="translate(544,332)"><text x="5" style="font-size:11px;font-weight:bold;color:#000000;fill:#000000;" y="16"><tspan x="5" y="16" class="highcharts-text-outline" fill="#FFFFFF" stroke="#FFFFFF" stroke-width="2px" stroke-linejoin="round" style="">France</tspan><tspan x="5" y="16">France</tspan></text></g><g class="highcharts-label highcharts-data-label highcharts-data-label-color-2 " transform="translate(256,385)"><text x="5" style="font-size:11px;font-weight:bold;color:#000000;fill:#000000;" y="16"><tspan x="5" y="16" class="highcharts-text-outline" fill="#FFFFFF" stroke="#FFFFFF" stroke-width="2px" stroke-linejoin="round" style="">Poland</tspan><tspan x="5" y="16">Poland</tspan></text></g><g class="highcharts-label highcharts-data-label highcharts-data-label-color-3 " transform="translate(121,318)"><text x="5" style="font-size:11px;font-weight:bold;color:#000000;fill:#000000;" y="16"><tspan x="5" y="16" class="highcharts-text-outline" fill="#FFFFFF" stroke="#FFFFFF" stroke-width="2px" stroke-linejoin="round" style="">Czech Republic</tspan><tspan x="5" y="16">Czech Republic</tspan></text></g><g class="highcharts-label highcharts-data-label highcharts-data-label-color-4 " transform="translate(123,215)"><text x="5" style="font-size:11px;font-weight:bold;color:#000000;fill:#000000;" y="16"><tspan x="5" y="16" class="highcharts-text-outline" fill="#FFFFFF" stroke="#FFFFFF" stroke-width="2px" stroke-linejoin="round" style="">Italy</tspan><tspan x="5" y="16">Italy</tspan></text></g><g class="highcharts-label highcharts-data-label highcharts-data-label-color-5 " transform="translate(103,105)"><text x="5" style="font-size:11px;font-weight:bold;color:#000000;fill:#000000;" y="16"><tspan x="5" y="16" class="highcharts-text-outline" fill="#FFFFFF" stroke="#FFFFFF" stroke-width="2px" stroke-linejoin="round" style="">Switzerland</tspan><tspan x="5" y="16">Switzerland</tspan></text></g><g class="highcharts-label highcharts-data-label highcharts-data-label-color-6 " transform="translate(204,4)"><text x="5" style="font-size:11px;font-weight:bold;color:#000000;fill:#000000;" y="16"><tspan x="5" y="16" class="highcharts-text-outline" fill="#FFFFFF" stroke="#FFFFFF" stroke-width="2px" stroke-linejoin="round" style="">Germany</tspan><tspan x="5" y="16">Germany</tspan></text></g></g><g class="highcharts-legend"><rect fill="none" class="highcharts-legend-box" rx="0" ry="0" x="0" y="0" width="8" height="8" visibility="hidden"></rect><g><g></g></g></g><g class="highcharts-label highcharts-tooltip highcharts-color-0" style="cursor:default;pointer-events:none;white-space:nowrap;" transform="translate(351,-9999)" opacity="0" visibility="visible"><path fill="none" class="highcharts-label-box highcharts-tooltip-box" d="M 3.5 0.5 L 295.5 0.5 C 298.5 0.5 298.5 0.5 298.5 3.5 L 298.5 62.5 C 298.5 65.5 298.5 65.5 295.5 65.5 L 3.5 65.5 C 0.5 65.5 0.5 65.5 0.5 62.5 L 0.5 3.5 C 0.5 0.5 0.5 0.5 3.5 0.5" isShadow="true" stroke="#000000" stroke-opacity="0.049999999999999996" stroke-width="5" transform="translate(1, 1)"></path><path fill="none" class="highcharts-label-box highcharts-tooltip-box" d="M 3.5 0.5 L 295.5 0.5 C 298.5 0.5 298.5 0.5 298.5 3.5 L 298.5 62.5 C 298.5 65.5 298.5 65.5 295.5 65.5 L 3.5 65.5 C 0.5 65.5 0.5 65.5 0.5 62.5 L 0.5 3.5 C 0.5 0.5 0.5 0.5 3.5 0.5" isShadow="true" stroke="#000000" stroke-opacity="0.09999999999999999" stroke-width="3" transform="translate(1, 1)"></path><path fill="none" class="highcharts-label-box highcharts-tooltip-box" d="M 3.5 0.5 L 295.5 0.5 C 298.5 0.5 298.5 0.5 298.5 3.5 L 298.5 62.5 C 298.5 65.5 298.5 65.5 295.5 65.5 L 3.5 65.5 C 0.5 65.5 0.5 65.5 0.5 62.5 L 0.5 3.5 C 0.5 0.5 0.5 0.5 3.5 0.5" isShadow="true" stroke="#000000" stroke-opacity="0.15" stroke-width="1" transform="translate(1, 1)"></path><path fill="rgba(247,247,247,0.85)" class="highcharts-label-box highcharts-tooltip-box" d="M 3.5 0.5 L 295.5 0.5 C 298.5 0.5 298.5 0.5 298.5 3.5 L 298.5 62.5 C 298.5 65.5 298.5 65.5 295.5 65.5 L 3.5 65.5 C 0.5 65.5 0.5 65.5 0.5 62.5 L 0.5 3.5 C 0.5 0.5 0.5 0.5 3.5 0.5" stroke="#7cb5ec" stroke-width="1"></path><text x="8" style="font-size:12px;color:#333333;fill:#333333;" y="20"><tspan style="fill:#7cb5ec">●</tspan><tspan style="font-weight:bold" dx="0"> Spain</tspan><tspan x="8" dy="15">Area (square km): </tspan><tspan style="font-weight:bold" dx="0">505 370</tspan><tspan x="8" dy="15">Population density (people per square km): </tspan><tspan style="font-weight:bold" dx="0">92.9</tspan></text></g></svg>