<?xml version="1.0" standalone="no"?><!DOCTYPE svg PUBLIC "-//W3C//DTD SVG 1.1//EN" "http://www.w3.org/Graphics/SVG/1.1/DTD/svg11.dtd"><svg xmlns:xlink="http://www.w3.org/1999/xlink" version="1.1" class="highcharts-root" style="font-family:&quot;Lucida Grande&quot;, &quot;Lucida Sans Unicode&quot;, Arial, Helvetica, sans-serif;font-size:12px;" xmlns="http://www.w3.org/2000/svg" width="600" height="400" viewBox="0 0 600 400"><defs><clipPath id="highcharts-f0z8lw6-11"><rect x="0" y="0" width="520" height="269" fill="none"></rect></clipPath></defs><rect fill="#ffffff" class="highcharts-background" x="0" y="0" width="600" height="400" rx="0" ry="0"></rect><rect fill="none" class="highcharts-plot-background" x="70" y="53" width="520" height="269"></rect><g class="highcharts-grid highcharts-xaxis-grid "><path fill="none" class="highcharts-grid-line" d="M 173.5 53 L 173.5 322" opacity="1"></path><path fill="none" class="highcharts-grid-line" d="M 277.5 53 L 277.5 322" opacity="1"></path><path fill="none" class="highcharts-grid-line" d="M 381.5 53 L 381.5 322" opacity="1"></path><path fill="none" class="highcharts-grid-line" d="M 485.5 53 L 485.5 322" opacity="1"></path><path fill="none" class="highcharts-grid-line" d="M 589.5 53 L 589.5 322" opacity="1"></path><path fill="none" class="highcharts-grid-line" d="M 69.5 53 L 69.5 322" opacity="1"></path></g><g class="highcharts-grid highcharts-yaxis-grid "><path fill="none" stroke="#e6e6e6" stroke-width="1" class="highcharts-grid-line" d="M 70 322.5 L 590 322.5" opacity="1"></path><path fill="none" stroke="#e6e6e6" stroke-width="1" class="highcharts-grid-line" d="M 70 255.5 L 590 255.5" opacity="1"></path><path fill="none" stroke="#e6e6e6" stroke-width="1" class="highcharts-grid-line" d="M 70 188.5 L 590 188.5" opacity="1"></path><path fill="none" stroke="#e6e6e6" stroke-width="1" class="highcharts-grid-line" d="M 70 120.5 L 590 120.5" opacity="1"></path><path fill="none" stroke="#e6e6e6" stroke-width="1" class="highcharts-grid-line" d="M 70 52.5 L 590 52.5" opacity="1"></path></g><rect fill="none" class="highcharts-plot-border" x="70" y="53" width="520" height="269"></rect><g class="highcharts-axis highcharts-xaxis "><path fill="none" class="highcharts-tick" stroke="#ccd6eb" stroke-width="1" d="M 173.5 322 L 173.5 332" opacity="1"></path><path fill="none" class="highcharts-tick" stroke="#ccd6eb" stroke-width="1" d="M 277.5 322 L 277.5 332" opacity="1"></path><path fill="none" class="highcharts-tick" stroke="#ccd6eb" stroke-width="1" d="M 381.5 322 L 381.5 332" opacity="1"></path><path fill="none" class="highcharts-tick" stroke="#ccd6eb" stroke-width="1" d="M 485.5 322 L 485.5 332" opacity="1"></path><path fill="none" class="highcharts-tick" stroke="#ccd6eb" stroke-width="1" d="M 590.5 322 L 590.5 332" opacity="1"></path><path fill="none" class="highcharts-tick" stroke="#ccd6eb" stroke-width="1" d="M 69.5 322 L 69.5 332" opacity="1"></path><path fill="none" class="highcharts-axis-line" stroke="#ccd6eb" stroke-width="1" d="M 70 322.5 L 590 322.5"></path></g><g class="highcharts-axis highcharts-yaxis "><text x="25.609375" text-anchor="middle" transform="translate(0,0) rotate(270 25.609375 187.5)" class="highcharts-axis-title" style="color:#666666;fill:#666666;" y="187.5"><tspan>Values</tspan></text><path fill="none" class="highcharts-axis-line" d="M 70 53 L 70 322"></path></g><text x="120" y="83" style="position:absolute;color:black;fill:black;"><tspan>Total Feedback Givers</tspan></text><g class="highcharts-series-group"><g class="highcharts-series highcharts-series-0 highcharts-column-series highcharts-color-0 " transform="translate(70,53) scale(1 1)" clip-path="url(#highcharts-f0z8lw6-11)"><rect x="22.5" y="188.5" width="17" height="81" fill="#7cb5ec" stroke="#ffffff" stroke-width="1" class="highcharts-point highcharts-color-0"></rect><rect x="126.5" y="215.5" width="17" height="54" fill="#7cb5ec" stroke="#ffffff" stroke-width="1" class="highcharts-point highcharts-color-0"></rect><rect x="230.5" y="242.5" width="17" height="27" fill="#7cb5ec" stroke="#ffffff" stroke-width="1" class="highcharts-point highcharts-color-0"></rect><rect x="334.5" y="188.5" width="17" height="81" fill="#7cb5ec" stroke="#ffffff" stroke-width="1" class="highcharts-point highcharts-color-0"></rect><rect x="438.5" y="161.5" width="17" height="108" fill="#7cb5ec" stroke="#ffffff" stroke-width="1" class="highcharts-point highcharts-color-0"></rect></g><g class="highcharts-markers highcharts-series-0 highcharts-column-series highcharts-color-0 " transform="translate(70,53) scale(1 1)" clip-path="none"></g><g class="highcharts-series highcharts-series-1 highcharts-column-series highcharts-color-1 " transform="translate(70,53) scale(1 1)" clip-path="url(#highcharts-f0z8lw6-11)"><rect x="43.5" y="215.5" width="17" height="54" fill="#434348" stroke="#ffffff" stroke-width="1" class="highcharts-point highcharts-color-1"></rect><rect x="147.5" y="188.5" width="17" height="81" fill="#434348" stroke="#ffffff" stroke-width="1" class="highcharts-point highcharts-color-1"></rect><rect x="251.5" y="135.5" width="17" height="134" fill="#434348" stroke="#ffffff" stroke-width="1" class="highcharts-point highcharts-color-1"></rect><rect x="355.5" y="81.5" width="17" height="188" fill="#434348" stroke="#ffffff" stroke-width="1" class="highcharts-point highcharts-color-1"></rect><rect x="459.5" y="108.5" width="17" height="161" fill="#434348" stroke="#ffffff" stroke-width="1" class="highcharts-point highcharts-color-1"></rect></g><g class="highcharts-markers highcharts-series-1 highcharts-column-series highcharts-color-1 " transform="translate(70,53) scale(1 1)" clip-path="none"></g><g class="highcharts-series highcharts-series-2 highcharts-column-series highcharts-color-2 " transform="translate(70,53) scale(1 1)" clip-path="url(#highcharts-f0z8lw6-11)"><rect x="63.5" y="161.5" width="17" height="108" fill="#90ed7d" stroke="#ffffff" stroke-width="1" class="highcharts-point highcharts-color-2"></rect><rect x="167.5" y="188.5" width="17" height="81" fill="#90ed7d" stroke="#ffffff" stroke-width="1" class="highcharts-point highcharts-color-2"></rect><rect x="271.5" y="188.5" width="17" height="81" fill="#90ed7d" stroke="#ffffff" stroke-width="1" class="highcharts-point highcharts-color-2"></rect><rect x="375.5" y="27.5" width="17" height="242" fill="#90ed7d" stroke="#ffffff" stroke-width="1" class="highcharts-point highcharts-color-2"></rect><rect x="479.5" y="269.5" width="17" height="0" fill="#90ed7d" stroke="#ffffff" stroke-width="1" class="highcharts-point highcharts-color-2"></rect></g><g class="highcharts-markers highcharts-series-2 highcharts-column-series highcharts-color-2 " transform="translate(70,53) scale(1 1)" clip-path="none"></g><g class="highcharts-series highcharts-series-3 highcharts-spline-series highcharts-color-3 " transform="translate(70,53) scale(1 1)" clip-path="url(#highcharts-f0z8lw6-11)"><path fill="none" d="M 52 188.3 C 52 188.3 114.4 197.17700000000002 156 197.17700000000002 C 197.6 197.17700000000002 218.4 197.17700000000002 260 188.3 C 301.6 179.423 322.4 98.72300000000001 364 98.72300000000001 C 405.6 98.72300000000001 468 179.423 468 179.423" class="highcharts-graph" stroke="#f7a35c" stroke-width="2" stroke-linejoin="round" stroke-linecap="round"></path></g><g class="highcharts-markers highcharts-series-3 highcharts-spline-series highcharts-color-3 " transform="translate(70,53) scale(1 1)" clip-path="none"><path fill="white" d="M 56 188 A 4 4 0 1 1 55.99999800000017 187.99600000066667 Z" stroke="#f7a35c" stroke-width="2" class="highcharts-point highcharts-color-3"></path><path fill="white" d="M 160 197 A 4 4 0 1 1 159.99999800000018 196.99600000066667 Z" stroke="#f7a35c" stroke-width="2" class="highcharts-point highcharts-color-3"></path><path fill="white" d="M 264 188 A 4 4 0 1 1 263.9999980000002 187.99600000066667 Z" stroke="#f7a35c" stroke-width="2" class="highcharts-point highcharts-color-3"></path><path fill="white" d="M 368 99 A 4 4 0 1 1 367.9999980000002 98.99600000066667 Z" stroke="#f7a35c" stroke-width="2" class="highcharts-point highcharts-color-3"></path><path fill="white" d="M 472 179 A 4 4 0 1 1 471.9999980000002 178.99600000066667 Z" stroke="#f7a35c" stroke-width="2" class="highcharts-point highcharts-color-3"></path></g><g class="highcharts-series highcharts-series-4 highcharts-pie-series " transform="translate(70,53) scale(1 1)"><path fill="#7cb5ec" d="M 119.98981633981523 50.00000103706936 A 50 50 0 0 1 169.8108943235599 95.65548544862038 L 120 100 A 0 0 0 0 0 120 100 Z" transform="translate(0,0)" stroke="#ffffff" stroke-width="1" stroke-linejoin="round" class="highcharts-point highcharts-color-0"></path><path fill="#434348" d="M 169.81521393194208 95.70529850689923 A 50 50 0 0 1 78.74995837021325 128.256575615967 L 120 100 A 0 0 0 0 0 120 100 Z" transform="translate(0,0)" stroke="#ffffff" stroke-width="1" stroke-linejoin="round" class="highcharts-point highcharts-color-1"></path><path fill="#90ed7d" d="M 78.72172242432582 128.2153114529256 A 50 50 0 0 1 119.93055100309643 50.00004823165497 L 120 100 A 0 0 0 0 0 120 100 Z" transform="translate(0,0)" stroke="#ffffff" stroke-width="1" stroke-linejoin="round" class="highcharts-point highcharts-color-2"></path></g><g class="highcharts-markers highcharts-series-4 highcharts-pie-series " transform="translate(70,53) scale(1 1)"></g></g><g class="highcharts-label" opacity="1" transform="translate(275,221)"><path fill="none" class="highcharts-label-box" d="M 0 0" stroke="#f7a35c" stroke-width="1"></path><text x="0" style="font-weight:bold;color:#f7a35c;fill:#f7a35c;" y="12">Average</text></g><text x="300" text-anchor="middle" class="highcharts-title" style="color:#333333;font-size:18px;fill:#333333;" y="24"><tspan>Feedback Giver Chart</tspan></text><text x="300" text-anchor="middle" class="highcharts-subtitle" style="color:#666666;fill:#666666;" y="52"></text><g class="highcharts-legend" transform="translate(155,356)"><rect fill="none" class="highcharts-legend-box" rx="0" ry="0" x="0" y="0" width="289" height="29" visibility="visible"></rect><g><g><g class="highcharts-legend-item highcharts-column-series highcharts-color-0 highcharts-series-0" transform="translate(8,3)"><text x="21" style="color:#333333;font-size:12px;font-weight:bold;cursor:pointer;fill:#333333;" text-anchor="start" y="15"><tspan>Completed</tspan></text><rect x="2" y="4" width="12" height="12" fill="#7cb5ec" rx="6" ry="6" class="highcharts-point"></rect></g><g class="highcharts-legend-item highcharts-column-series highcharts-color-1 highcharts-series-1" transform="translate(92.515625,3)"><text x="21" y="15" style="color:#333333;font-size:12px;font-weight:bold;cursor:pointer;fill:#333333;" text-anchor="start"><tspan>InProcess</tspan></text><rect x="2" y="4" width="12" height="12" fill="#434348" rx="6" ry="6" class="highcharts-point"></rect></g><g class="highcharts-legend-item highcharts-column-series highcharts-color-2 highcharts-series-2" transform="translate(172.78125,3)"><text x="21" y="15" style="color:#333333;font-size:12px;font-weight:bold;cursor:pointer;fill:#333333;" text-anchor="start"><tspan>Not Completed</tspan></text><rect x="2" y="4" width="12" height="12" fill="#90ed7d" rx="6" ry="6" class="highcharts-point"></rect></g><g class="highcharts-legend-item highcharts-spline-series highcharts-color-3 highcharts-series-3" transform="translate(285.359375,3)"><path fill="none" d="M 0 11 L 16 11" class="highcharts-graph" stroke="#f7a35c" stroke-width="2"></path><path fill="white" d="M 12 11 A 4 4 0 1 1 11.999998000000167 10.996000000666664 Z" class="highcharts-point" stroke="#f7a35c" stroke-width="2"></path><text x="21" y="15" style="color:#333333;font-size:12px;font-weight:bold;cursor:pointer;fill:#333333;" text-anchor="start"><tspan>Average</tspan></text></g></g></g></g><g class="highcharts-axis-labels highcharts-xaxis-labels "><text x="122" style="color:#666666;cursor:default;font-size:11px;fill:#666666;" text-anchor="middle" transform="translate(0,0)" y="341" opacity="1">Managers</text><text x="226" style="color:#666666;cursor:default;font-size:11px;fill:#666666;" text-anchor="middle" transform="translate(0,0)" y="341" opacity="1">Internal Customers</text><text x="330" style="color:#666666;cursor:default;font-size:11px;fill:#666666;" text-anchor="middle" transform="translate(0,0)" y="341" opacity="1">Peers</text><text x="434" style="color:#666666;cursor:default;font-size:11px;fill:#666666;" text-anchor="middle" transform="translate(0,0)" y="341" opacity="1">Sub-ordinates</text><text x="538" style="color:#666666;cursor:default;font-size:11px;fill:#666666;" text-anchor="middle" transform="translate(0,0)" y="341" opacity="1">Customers</text></g><g class="highcharts-axis-labels highcharts-yaxis-labels "><text x="55" style="color:#666666;cursor:default;font-size:11px;fill:#666666;" text-anchor="end" transform="translate(0,0)" y="326" opacity="1">0</text><text x="55" style="color:#666666;cursor:default;font-size:11px;fill:#666666;" text-anchor="end" transform="translate(0,0)" y="259" opacity="1">2.5</text><text x="55" style="color:#666666;cursor:default;font-size:11px;fill:#666666;" text-anchor="end" transform="translate(0,0)" y="192" opacity="1">5</text><text x="55" style="color:#666666;cursor:default;font-size:11px;fill:#666666;" text-anchor="end" transform="translate(0,0)" y="124" opacity="1">7.5</text><text x="55" style="color:#666666;cursor:default;font-size:11px;fill:#666666;" text-anchor="end" transform="translate(0,0)" y="57" opacity="1">10</text></g></svg>