<?xml version="1.0" encoding="UTF-8"?>
<!DOCTYPE svg PUBLIC "-//W3C//DTD SVG 1.1//EN" "http://www.w3.org/Graphics/SVG/1.1/DTD/svg11.dtd">
<!-- Creator: CorelDRAW 2018 (64-Bit Evaluation Version) -->
<svg xmlns="http://www.w3.org/2000/svg" xml:space="preserve" width="200mm" height="65mm" version="1.1" style="shape-rendering:geometricPrecision; text-rendering:geometricPrecision; image-rendering:optimizeQuality; fill-rule:evenodd; clip-rule:evenodd"
viewBox="0 0 20000 6500"
 xmlns:xlink="http://www.w3.org/1999/xlink">
 <defs>
  <style type="text/css">
   <![CDATA[
    .fil4 {fill:#009846}
    .fil1 {fill:#201E1E}
    .fil7 {fill:#2072B2}
    .fil2 {fill:#929494}
    .fil6 {fill:#C5C6C6}
    .fil3 {fill:#E31E24}
    .fil5 {fill:#EF7F1A}
    .fil0 {fill:#009846;fill-rule:nonzero}
   ]]>
  </style>
 </defs>
 <g id="Layer_x0020_1">
  <metadata id="CorelCorpID_0Corel-Layer"/>
  <path class="fil0" d="M7413.51 3399.58l-19.42 289.89 -695.58 24.21 14.98 -290.44 700.02 -23.66zm1808.84 592.99l-27.17 370.2c-154.2,36.85 -305.63,55.01 -455.41,55.01 -371.64,0 -654.53,-101.77 -849.22,-305.3 -194.15,-203.52 -291.22,-451.06 -291.22,-742.05 0,-301.99 103.17,-564.93 309.52,-788.26 206.35,-223.33 489.24,-335 849.23,-335 132.02,0 256.82,14.86 374.97,45.11l-56.58 372.4c-128.14,-41.25 -250.16,-61.61 -367.2,-61.61 -220.22,0 -383.85,69.31 -490.91,207.38 -107.6,138.07 -160.85,305.84 -160.85,503.32 0,201.88 63.79,377.35 190.81,525.33 127.57,148.52 305.63,222.78 535.27,222.78 134.8,0 280.68,-23.11 438.76,-69.31zm2283.1 -706.3c0,330.04 -101.5,603.43 -305.63,820.71 -203.57,216.73 -455.4,325.1 -755.48,325.1 -286.22,0 -525.3,-99.57 -718.33,-298.69 -193.03,-199.13 -288.99,-452.72 -288.99,-759.66 0,-330.05 101.5,-603.43 305.08,-820.71 204.12,-216.73 455.95,-325.1 756.03,-325.1 285.67,0 525.3,99.01 718.33,298.14 192.48,198.58 288.99,452.17 288.99,760.21zm-448.19 46.75c0,-224.43 -58.24,-406.5 -174.16,-546.22 -115.94,-139.72 -259.05,-209.58 -428.78,-209.58 -158.64,0 -292.88,70.41 -403.26,211.23 -110.38,140.82 -165.85,318.49 -165.85,533.57 0,223.33 58.24,405.41 174.72,545.68 116.49,139.72 259.04,210.13 428.22,210.13 158.09,0 292.32,-70.41 403.27,-211.78 110.37,-141.37 165.84,-319.05 165.84,-533.03zm3249.93 1041.3l-472.6 0c0,-182.63 -11.64,-490.67 -34.38,-924.13 -22.74,-433.46 -34.39,-704.1 -35.51,-811.36l-24.4 0c-11.09,64.36 -39.93,183.72 -86.53,357.55 -46.04,174.37 -133.68,430.71 -262.37,769.56 -128.13,338.84 -192.47,541.82 -192.47,608.38l-358.89 0c0,-68.76 -61.57,-273.39 -184.71,-613.89 -123.15,-340.49 -203.58,-579.23 -241.29,-715.65 -37.72,-136.41 -68.23,-271.73 -90.97,-405.95l-24.41 0c-1.11,134.22 -14.42,421.91 -39.93,863.62 -25.52,441.71 -37.73,732.15 -37.73,871.87l-429.33 0c0,-32.45 39.39,-355.35 117.6,-968.68 78.77,-613.34 118.14,-990.14 118.14,-1129.86l629.03 0c0,120.46 66,386.15 199.13,796.51 132.57,410.36 198.58,672.74 198.58,787.71l24.41 0c0,-116.07 75.99,-379 226.86,-789.36 151.43,-410.36 226.87,-675.5 226.87,-794.86l624.03 0c0,222.78 24.96,619.38 75.44,1190.36 50.48,570.98 75.43,873.53 75.43,908.18zm1976.37 -1548.47c0,256.34 -95.97,446.12 -288.44,568.78 -192.48,122.12 -428.22,183.73 -707.78,183.73 -51.04,0 -87.09,-1.1 -108.73,-3.3 0,201.88 6.1,468.11 17.76,799.26l-456.52 0c13.87,-310.24 21.09,-676.04 21.09,-1097.4 0,-386.71 -7.22,-720.6 -21.09,-1001.14l282.9 0c39.94,0 117.04,-1.1 230.75,-4.4 113.71,-3.3 211.89,-4.95 295.64,-4.95 205.8,0 379.42,46.2 521.42,138.62 142,92.41 213,232.68 213,420.8zm-419.35 88.57c0,-229.94 -153.64,-344.9 -461.5,-344.9 -76.55,0 -158.09,7.7 -243.51,24.2 11.65,202.98 17.75,432.91 17.75,689.8 27.18,1.65 58.24,2.75 94.3,2.75 395.49,0 592.96,-123.77 592.96,-371.85zm2502.77 1459.9l-519.74 0c0,-70.96 -49.37,-271.74 -148.11,-602.88l-750.5 0c-102.06,325.64 -153.09,526.42 -153.09,602.88l-489.24 0c0,-41.81 126.47,-385.6 379.41,-1031.39 252.94,-645.79 379.41,-1001.14 379.41,-1067.15l614.59 0c0,61.61 114.27,412 343.36,1051.74 229.64,639.74 343.91,988.49 343.91,1046.8zm-750.5 -910.38c-185.26,-554.47 -277.89,-854.27 -277.89,-899.37l-26.08 0c0,41.8 -95.96,341.6 -287.88,899.37l591.85 0zm2383.5 338.3c0,420.26 -304.52,629.84 -913.01,629.84 -206.9,0 -399.38,-24.21 -576.88,-73.71l79.32 -359.75c175.83,60.51 341.14,90.21 497.56,90.21 173.06,0 297.87,-16.5 373.3,-49.51 76,-33.55 114.26,-89.66 114.26,-167.77 0,-81.96 -36.05,-150.72 -107.6,-206.28 -61.57,-49.51 -186.94,-113.86 -375.52,-193.63 -170.86,-72.61 -298.43,-152.37 -381.64,-238.18 -104.83,-108.36 -157.53,-242.58 -157.53,-401.55 0,-184.83 68.78,-328.95 206.9,-433.47 138.12,-103.96 336.7,-156.22 595.74,-156.22 212.44,0 390.5,17.61 534.72,53.36l-60.46 357.55c-145.88,-52.81 -303.97,-78.66 -474.26,-78.66 -255.71,0 -383.29,67.66 -383.29,202.98 0,72.06 29.4,130.37 89.3,175.47 52.15,38.51 165.31,92.96 339.47,162.82 185.28,74.26 323.95,155.68 416.03,244.79 122.57,119.37 183.59,266.79 183.59,441.71z"/>
  <g id="_2888646308784">
   <path class="fil1" d="M4753.92 2116.63l-50.77 1.99c-24.49,-3.61 -24.28,0.66 -45.13,5.38l-84.62 15.4c-21.97,4.06 -35.37,11.7 -58.47,16.24 -19.81,16.38 -44.89,22.11 -67.91,37.08 -20.29,13.19 -48.38,32.64 -61.38,45.31 -25.16,24.5 -59.87,83.59 -75.14,130.27l-4.48 11.19 -17.3 83.94c-17.33,55.58 -13.3,98.28 -22.36,159.91 -6.17,42 -12.69,126.02 -7.04,170.27l-3.2 235.03 3.2 72.75 5.7 128.96c10.54,59.09 13.94,117.87 26.5,178.67l23.29 72.91 4.73 11.19c18.97,13.8 22.71,41.74 77.33,52.39 39.72,7.75 67.95,-9.84 108.83,-13.22 41.99,62.21 10.17,27.24 31.79,67.16l2.19 115.22 -0.51 7.89c1.54,59.21 0.38,119.73 0.38,179.08 -0.01,65.21 5.64,108.9 5.64,173.48 -16.18,-11.76 -46.44,-64.25 -56.42,-84.94 -1100.06,-1694.63 0,0 -1100.06,-1694.63l-61.49 0c-14.69,6.46 -36.59,6.68 -51.56,0l-439.58 0c-17.77,7.53 -63.23,6.97 -80.16,0l-151.36 2.51c-38.95,-0.3 -115.18,11.24 -146.8,-2.51l-162.73 0c-25.63,10.84 -163.78,2.14 -205.82,2.14 0.58,767.82 0.04,1535.65 0,2303.46 268.43,0 534.83,-2.92 803.26,-5.27 22.15,0.06 24.95,2.45 41.44,-5.92 0.02,-70.14 -7.15,-534.68 3.49,-558.33l-1.38 -74.03 1.12 -153.49 -0.02 -171.09 0.33 -274.2 -0.58 -55.96 0.57 -145.51c801.61,1236.55 0,0 801.61,1236.55 10,15.2 13.55,21.13 27.63,25.02 310.67,7.16 0,0 1263.22,-8.47 53.31,-4.75 128.48,-26.16 153.91,-59.99 45.75,-60.87 43.98,-268.35 43.98,-381.67 0,-74.13 5.64,-346.65 21.58,-403.9 32.25,-115.85 143.05,43.07 176.61,-121.39 4.49,-22.02 11.8,-69.47 9.03,-95.88l1.92 -50.36c14.53,-72.56 5.1,-364.63 5.23,-481.27l-8.88 -192.65c-3.64,-24.66 -8.07,-70.56 -7.98,-92.75 -11.8,-65.69 -19.29,-120.81 -42.09,-182.12 -25.46,-68.47 -58.17,-93.53 -92.12,-136.87 -82.91,-48.19 -83.57,-71.31 -229.08,-92.95 -61.61,-9.17 -161.92,-8.06 -229.31,-7.97 -34.61,0.05 -43.8,5.57 -78.78,5.95z"/>
   <path class="fil1" d="M4559.23 1355.4c-5.55,11.27 -7.41,14.45 -13.45,22.82 -1.56,2.17 -6.35,8 -7.82,9.61 -6.76,7.45 -1.88,3.16 -9.69,8.98 -4.67,13.94 -15.59,27.73 -23.48,47.22 -7.72,19.08 -11.4,29.61 -18.53,54.38 -14.42,50.07 -14.41,74.45 -14.41,136.25 4.47,8.78 1.29,1.27 4,12.94 10.5,45.12 7.05,53.68 28.83,106.41 18.16,43.98 38.57,66.66 59.27,99.56 14.58,11.84 25.28,28.96 36.98,39.57 12.14,11.03 29.2,24.18 44.3,34.32 38.36,25.75 66.64,32.27 104.11,52.67l4.58 0c45.74,31.26 179.64,19.9 233.41,4.14 33.74,-9.89 61.49,-23.85 90.01,-39.43 37.52,-20.51 55.06,-42.86 76.83,-57.81 7.66,-18.91 22.12,-33.85 39.78,-45.67 60.4,-80.12 92.77,-194.1 74.26,-302.21 -9.21,-53.78 -27.5,-87.64 -29.13,-101.66 -7.1,-6.21 -2.91,-1.53 -9.6,-10.3 -0.1,-0.14 -6.89,-10.26 -7.17,-10.75 -6.34,-10.96 -7.98,-15.4 -11.57,-27.46 -49.43,-74.83 -122.52,-132.91 -209.23,-161.67 -37.9,-12.57 -60.49,-15.97 -102.44,-21.53 -106.68,-14.15 -242.62,47.33 -313.14,117.31 -12.86,12.77 -13.72,19.68 -26.7,32.31z"/>
   <path class="fil2" d="M5272.92 996.4l231.3 95.98c-16.25,24.07 -145.39,146.79 -196.48,202.42l-97 94.18c3.6,12.06 5.23,16.49 11.58,27.47 0.28,0.47 7.06,10.59 7.16,10.73 6.69,8.78 2.49,4.1 9.6,10.3 16.43,-34.89 301.67,-303.96 304.63,-305.93 6.42,27.33 16.2,42.65 26.59,68.75 94.93,238.16 218.97,502.22 314.34,740.26l228.69 539.82c39.88,90.22 73.94,180.77 114.91,272.14 40.55,90.44 74.31,176.09 113.28,268.17l85.43 200.65c8.94,22.32 18.92,47.55 28.9,66.95 0.31,1.23 0.59,2.37 0.8,3.38 -94.07,0 -184.93,1.02 -275.36,2.17l-374.39 -0.32c-11.49,-22.43 -32.85,-70.65 -59.25,-132.23 -7.08,-17.6 -14.25,-35.31 -21.73,-52.95l-89.76 -212.21c-58.7,-140.97 -114.3,-275.28 -135.66,-322.68 -14.38,-31.92 -23.3,-59.4 -37.69,-91.32 -14.46,-32.08 -25.03,-58.54 -38.31,-90.71 -23.04,-55.8 -222,-510.81 -230.55,-550.06 -17.66,11.82 -32.11,26.76 -39.78,45.67 11.85,21.03 24.77,54.95 34.14,78.34 11.47,28.6 22.67,54.37 34.64,83.16 22.03,52.93 48.42,105.25 68.14,163.07 33.77,43.11 66.32,68.14 91.72,135.78l-1.98 0c7.31,17.8 13.71,36.23 19.32,55.15 10.74,41.34 16.9,82.12 25.15,128.06 0.49,0.56 0.98,1.18 1.49,1.85 17.36,132.99 11.33,275.06 11.53,391.03 0.01,16.34 -0.54,40.39 11.27,53.84 11.25,-46.54 2.18,-372.52 -11.42,-418.19 1.59,1.42 3.81,4.55 6.53,9.11 8.5,20.69 16.61,43.75 21.95,55.59l279.12 657.72c1.09,5.21 1.91,10.17 2.39,14.8l-59.34 0.92 -236.79 0c-6.32,-79.13 16.36,-185.62 -2.45,-259.94 -26.1,29.89 -10.39,127.87 -10.62,173.57 -0.32,59.37 -7.23,119.33 -6.69,177.59 20.48,-18.06 0.44,-0.52 8.95,-18.87l10.74 -21.99 289.93 0c-1.58,8.45 -4.54,19.65 -8.69,33.26l-315.22 770.98c-54.94,136.18 -110.11,264.62 -165.2,401.33l-166.02 407.33c1.68,-1.15 3.41,-2.49 5.17,-3.96 -9.34,23.36 -18.87,45.46 -28.97,64.85 -32.02,-11.94 -44.01,-31 -77.82,-65.55 -25.82,-26.4 -46.68,-45.78 -72.49,-72.18 -45.16,-46.16 -99.38,-104.87 -145.84,-144.2l-5.95 23.9c-37.31,2.57 -102.08,-7.16 -129.44,8.59 123.77,-4.23 95.92,-10.34 221.56,115.02 36.42,36.35 150.13,136.6 166.28,174.03 -268.71,119.48 -672.02,265.93 -925.89,384.68 -137.91,64.5 -375.91,150.2 -511.99,213.54 -54.28,25.27 -39.94,12.01 -50.31,3.69l11.2 -3.94c13.21,2.84 10.84,5.95 9.32,-6.85l10.57 -6.81c13.02,3.38 10.72,6.26 8.69,-6.63 13.54,1.24 9.6,3.94 9.6,-10.46 -14.01,1.74 -11.66,-2.39 -9.6,10.46l-8.69 6.63c-14.48,-3.27 -12.15,-6.93 -10.57,6.81l-9.32 6.85 -11.2 3.94 -70.86 57.27c-1.16,1.01 -13.12,12.21 -13.44,12.55 -12.16,12.94 -2.17,-0.49 -13.41,16.3 41.85,-2.17 134.13,-0.53 160.73,-22.48 25.08,1.86 34.54,6.76 50.71,-7.32 18.17,3.01 3.09,6.28 26,0.99 18.06,-4.19 7.47,-0.43 17.43,-8.99l-43.43 8c-32.94,-8.31 -24.82,-8.32 -50.71,7.32l-53.25 -3.28c39.44,-9.66 57.67,-24.78 94.21,-38.67 203.74,-77.39 454.65,-195.31 666.03,-275.86l188.2 -77.29c87.77,-37.87 509.02,-221.22 569.7,-236.1 34.59,22.06 85.06,79.01 117,111.2 54.64,55.09 319.32,300.9 339.16,339.94l-10.21 9.14c-15.2,10.9 -0.07,1.82 -16,10.52l-493.65 205.94c-95.08,37.09 -168.87,70.3 -262.61,108.91l-232.41 97.94c-37.24,7.27 -22.12,4.58 -39.44,-5.12 5.04,-18.93 10.19,-16.09 -8.03,-14.28 0,17.22 -5.45,15.15 8.03,14.28 4.52,23.59 61.44,105.61 81.61,134.85l7.28 9.91c-9.83,-47.23 -21.95,-42.74 -46.2,-93.46 24.56,-5.93 67.65,-25.9 93.59,-35.76 33.03,-12.55 58.31,-27.62 92.38,-42.24 156.51,-67.06 422.36,-166.81 565.42,-232.24 56.69,-25.93 118.76,-55.51 185.07,-79.8 81.32,-29.81 147.36,-46.55 165.23,-96.48 70.1,-195.98 194.02,-473.79 285.8,-692.82 2.52,1.37 5.21,2.91 8.12,4.66 -2.85,-5.77 -1.84,-15.54 1.35,-27.32 4.78,-11.45 9.44,-22.71 14,-33.78l231.21 -562.46c3.53,-8.13 6.76,-16.39 9.86,-24.71l250.43 -609.2c34.83,-85.82 68.83,-167.19 105.21,-254.08 11.62,-27.76 4.53,-40.14 -6.83,-65.62l-1.73 -3.84c-45.96,-111.82 -92.75,-221.3 -139.78,-330.06 -15.35,-37.27 -30.83,-72.23 -45.46,-107.41l-317.52 -748.28c-94.72,-227.62 -219.65,-532.47 -318.84,-752.59l-106.35 -252.65c-10.92,-21.03 4.17,-9.14 -55.91,-34.08l-192.34 -75.12 14.47 26.25 -67.97 0.89zm-97.01 3864.52c6.9,-9.28 12.84,-19.52 19.47,-30.32 -1.89,-7.39 -3.4,-5.6 4.2,-5.6 1.79,-21.22 7.11,-29.74 14.97,-46.72l57.63 -138.7c25.71,-62.17 49.39,-120.2 75.73,-182.29 7.09,-16.71 9.59,-27.82 17.16,-44.53l438.14 -1065.14c172.47,0 337.18,-3.37 503.9,-4.88l143.33 -0.6c-0.68,6.68 -4.4,19.79 -10.45,37.76 -8.41,21.28 -18.97,44.69 -23.81,55.33l-377.63 918.1c-21.28,53.39 -178.03,444.8 -193.47,460.48 1.83,1.96 3.57,3.74 5.23,5.37 -21.96,51.34 -43.62,102.39 -62.72,152.51 -35.74,93.8 -70.53,186.02 -111.1,274.86 -20.81,45.56 -38.57,90.59 -57.16,134.52 -12.62,29.8 -38.82,111.11 -60.25,134.62 -51.99,-25.84 -366.64,-372.16 -461.75,-445.61 1.08,-12.22 31.6,-91.99 78.58,-209.16z"/>
   <path class="fil2" d="M1525.16 5071.23c9.66,18.03 23.9,28.66 41.39,40.51 20.93,2.46 73.41,26.66 97.52,36.23 456.49,181.21 916.98,373.96 1374.01,556.48 20.24,8.08 85.69,28.93 96.77,43.9l100.89 2.67 -0.62 -19.51 -2.4 -5.53c-31,-6.14 -264.94,-104.75 -303.35,-120.75l-913.96 -369.28c-70.43,-27.85 -133.21,-55.15 -203.87,-83.17l-205.5 -81.55 255.27 -261.62c100.07,-99.2 65.18,-103.74 195.88,-46.01l747.05 302.03c-13.48,-27.28 -35.92,-59.29 -53,-77.26 -82.85,-26.72 -197.49,-81.82 -282.78,-112.3l-473.17 -190.97c5.38,-19.96 71.97,-82.99 90.27,-95.14l3.65 11.19 0.02 -374.02 -3.67 0c0,86.78 2.2,176.18 0.46,262.57 -0.74,37.62 -10.64,34.81 -55.47,79.28 -12.56,12.46 -21.6,20.86 -33.83,33.6 -20.56,21.43 -25.14,21.06 -29.63,37.75l-16.93 0c-1.59,-18.93 -47.16,-116.66 -58.02,-143.91l-168.47 -398.28c-5.72,-13.59 -13.98,-24.99 -12.1,-34.21l-71.68 -32.91c1.02,1.57 2.88,6.28 3.35,7.37l273.07 646.71 -348.36 348.35 -98.89 -234.86c-121.38,-278.98 -243.02,-591.3 -367.03,-867.06l-65.77 -160.18 -67.69 -27.47c165.08,378.64 324.28,783.3 490.64,1159.62 12.39,28.05 22.64,53.71 34.75,83.05 7.89,19.12 32.44,63.54 31.2,84.68z"/>
   <path class="fil3" d="M4661.93 695.06c-6.45,16.76 -5.55,14.33 -15.63,27.65 -13.76,18.17 -3.35,10.49 -22.14,19.69 -8.38,24.12 -189.97,243.86 -197.44,271.64 141.46,0 276.01,-6.31 423.14,-5.56 42.95,0.22 61.31,-5.93 101.37,-5.77l321.69 -6.32 67.96 -0.88 -14.46 -26.24 -195.8 -239.38c-11.48,-12.95 -17.96,-23.85 -29.26,-38.13l-228.97 -276.51 -210.46 279.81z"/>
   <path class="fil4" d="M3037.48 1495.3l-23.77 67.16 -103.8 297.31c-16.61,49.61 -34.45,96.75 -50.77,145.49 -16.71,49.93 -38.98,99.33 -51.65,150.38l-20.27 61.56 -4.14 5.6 -3.64 4.71c-4.12,18.89 -14.67,52.83 -23.52,68.04 16.93,6.97 62.39,7.53 80.16,0l40.2 -117.52 23.67 -67.15c53.77,-151.77 126.38,-375.37 181.75,-517.21 9.19,-23.54 19.64,-52.82 24.79,-75.98l20.24 -61.56 3.09 -5.6 5.03 -5.79c0.62,-2.62 118.91,-360.77 134.8,-385.94l23.03 -79.11c14.42,18.2 24,52.38 30.27,79.11 6.4,13.56 10.4,28.45 15.64,44.1 22.6,67.5 114.08,305.42 123.46,348.58 13.31,14.85 22.16,44.91 27.4,66.21 7.47,24.59 15.2,48.15 24.18,71.94 56.8,150.29 131.83,383.72 187.55,515.65l24.13 67.15 154.2 430.43 78.97 -0.9c-11.81,-20.97 -23.62,-68.22 -33.84,-93.76 -13.03,-32.6 -23.98,-62.59 -35.97,-98.63 -22.35,-67.17 -46.54,-133.84 -73.37,-197.97l-21.11 -61.55 -215.03 -593.19 -20.81 -61.56c-6.41,-23.79 -14.41,-45.86 -22.96,-67.15 -8.57,-21.31 -15.09,-42.63 -24.23,-65.51l-48.35 -136.7c-15.17,-45.46 -32.62,-84.74 -48.03,-131.44 -8.64,-26.15 -15.42,-40.68 -24.01,-65.72 -9.16,-26.68 -15.57,-49.25 -24.63,-73.68l-3.37 -0.94c-32.42,-1.83 -114.72,-8.32 -137.05,3.91l-140.99 397.98c-7.83,23.25 -15.31,45.73 -22.5,67.22 -7.44,22.22 -20.57,50.51 -24.75,72.03z"/>
   <path class="fil4" d="M2936.02 3957.6c13.3,15.41 13.85,34.11 19.49,54.79 2.98,10.95 10.95,47.28 17.15,57.13l14.56 61.56 100.12 382.9c5.3,24.36 12.11,40.02 13.66,60.97 10.16,13.2 13.43,35.44 17.19,54.19 1.72,26.89 134.47,504.21 135.13,530.21l146.67 2.55c48.48,-101.79 101.61,-202.72 152.32,-303.32 12.56,-24.93 24.97,-47.86 37.57,-74.64l115.03 -233.15c8.45,-26.31 24.39,-57.53 39.21,-74.55 6.77,-24.39 17.37,-29.27 22.56,-57.32 -14.08,-3.89 -17.63,-9.82 -27.63,-25.02l-23.14 -31.1c-30.23,49.36 -38.86,80.19 -58.79,118.47l-20.88 41.54 -2.55 7.04c-8.42,22.96 -19.62,51.01 -36.25,65.81 -6.58,27.77 -47.58,99.9 -62.05,128.61l-157.94 319c-10.35,20.39 -19.75,43.15 -32.43,61.54l-16.85 36.92c-16.04,-34.19 -34.15,-123.71 -44.49,-165.63 -12.94,-52.98 -25.95,-99.62 -39.42,-153.3 -7.07,-28.16 -12.65,-50.15 -19.14,-76.15 -5.15,-20.61 -14.68,-61.83 -22.44,-78.34l-15.55 -61.56 -27.45 -108.57c-10.06,-40.08 -20.12,-74.2 -29.34,-110.81l-59.97 -222.71 -15.3 -61.56c-7.91,-47.48 -26.34,-101.58 -37.57,-146.61 -13.25,-53.07 -26.39,-102.62 -38.97,-152.39l-41.39 0.01 -1.12 153.49z"/>
   <path class="fil2" d="M2937.45 3358.82l95.85 0c1.55,18.44 20.58,56.91 27.35,73.6 8.89,21.93 27.06,53.6 29.07,77.49l-121.22 123.11 33.69 3.8 -0.3 166.7 -23.36 0.58 26.54 2.83 0.03 -22.81c33.12,7.65 254.07,105.46 282.06,111.92l0 302.19 -171.59 -70.41c-25.54,-10.11 -38.35,-14 -60.5,-24.72l15.3 61.56c36.2,15.14 73.4,30.51 109.6,44.78 35.17,13.87 75.07,27.9 107.19,44.75l0 391.73 -100.03 -39.17 15.55 61.56c19.03,4.45 67.96,24.9 84.48,33.57 0,57.85 7.18,230.16 -3.48,274.22 10.34,41.92 28.45,131.44 44.49,165.63l16.85 -36.92c-6.43,-64.27 2.5,-139.21 -5.54,-197.4 -7.21,-52.19 -1.54,-148.48 -1.54,-205.53 19.78,-9.41 41.9,-16.25 63.97,-26.07l195.53 -80.15c16.63,-14.8 27.83,-42.85 36.25,-65.81l2.55 -7.04 -2.55 7.04c-22.69,-0.48 -185.86,71.63 -218.7,86.19 -21.03,9.32 -56.61,25.16 -77.05,29.88l0 -397.32c54.11,-12.51 211.4,-92.69 243.84,-95.14 -7.51,-20.13 -16.34,-31.82 -29.47,-44.79 -30.15,7.04 -72.89,29.49 -103.97,42.4 -25.53,10.61 -86.11,39.56 -110.4,41.57l0 -296.6c18.94,-9.95 43.87,-17.62 60.6,-27.98 -7.72,-16.84 -12.79,-28.66 -26.75,-39.59 -13.39,3.57 -22.96,6.43 -33.85,11.61l1.15 -61.55c-10.58,-25.26 -40.37,-77.07 -57.56,-90.31 0,49.85 -3.98,110.93 5.63,151.86l-282.06 -111.92c0,-92.75 11.7,-64.33 102.63,-161.21 38.06,-40.56 25.71,-12.68 103.62,10.11 -5.89,-13.34 -60.57,-103.9 -76.5,-114.61 -10.85,-4.4 -13.92,7.52 -8.09,-14.1l-3.19 -3.69 -4.56 -7.5c-11.91,-25.76 -69.89,-121.26 -85.71,-135.16 -19.74,11.11 -76.55,9.83 -96.43,0.86l0.58 55.96z"/>
   <path class="fil2" d="M1465 1475.31l-37.67 36.78 89.76 88.24 -193.98 464.92c-31.57,77.78 -63,155.8 -95.79,235.16l-95.15 236.56 -5.65 3.75 5.65 -3.75c21.16,-8.97 67.09,-44.99 79.59,-62.34 2.96,-16.25 12.73,-36.17 20.03,-52.28 8.62,-19.05 13.2,-31.66 21.26,-51.66l170.05 -413.3c16.22,-40.34 124.51,-292.59 126.53,-316.59 24.96,6.61 125.31,115.91 150.91,141.3 33.95,33.7 115.74,123.06 148.33,144.11l0.08 -27.55 39.16 -0.34 -253.25 -252.52c-0.85,-0.79 -2.09,-1.91 -2.93,-2.71l-13.89 -14.19c-0.82,-0.81 -1.92,-2.07 -2.76,-2.86 -1.2,-1.11 -4.62,-4.33 -5.93,-5.31 -8.72,-6.52 -2.24,-4.63 -14.59,-7.91l0 -11.19c41.93,-9.69 251.7,-103.53 311.87,-127.12l310.26 -128.73c35.63,-15.26 66.61,-28.76 103.16,-43.17 20.15,-7.95 32.74,-13.42 51.65,-21.52 17.93,-7.67 35.83,-18.03 52.34,-18.26 7.83,-5.7 3.28,-1.85 10.08,-8.92l56.43 -77.59c-11.63,6.47 -39.02,17.13 -54.37,23.24l-412.83 172.48c-11.56,5.07 -455.94,195.56 -473.72,190.42 -6.21,-1.8 -74.95,-67.51 -84.63,-87.15z"/>
   <path class="fil2" d="M3269.65 1058.8l0.61 341.37c-27.57,6.36 -43.01,16.07 -69.32,26.39 -27.57,10.81 -47.35,19.36 -74.21,29.57l-20.24 61.56c46.75,-10.67 130.9,-58.85 163.75,-61.56 0,173.89 5.64,329.41 5.64,503.65l-275.62 112.72c-26.22,10.73 -70.31,33.06 -100.31,38.38l-23.67 67.15 399.6 -162.29 -0.22 279.81c14.97,6.68 36.87,6.46 51.56,0l-0.58 -279.81c31.62,7.31 66.71,24.22 98.37,36.74 97.15,38.42 205.87,87.46 300.3,119.95l-24.13 -67.15c-23.68,-1.68 -30.81,-6.37 -49.31,-14.84l-139.79 -57.17c-32.3,-13.15 -59.57,-22.83 -92.78,-36.67 -27.5,-11.47 -65.42,-30.53 -92.64,-36.82 0,-175.73 -5.65,-338.39 -5.65,-509.25l168.44 67.16c-5.24,-21.3 -14.09,-51.36 -27.4,-66.21 -26.31,-8.19 -44.5,-16.37 -70.12,-26.53 -27.25,-10.81 -47.75,-18.21 -70.92,-30.38l1.94 -335.77c-6.27,-26.73 -15.85,-60.91 -30.27,-79.11l-23.03 79.11zm-139.83 391.73l5.03 -5.79 -5.03 5.79z"/>
   <path class="fil5" d="M4488.77 4786.1l-5.63 8.09 -5.65 0 -275.16 227.92c-80.74,70.02 -196.89,155.77 -278.95,226.95l-555.5 454.53 36.45 4.77 0.22 39.37 32.71 -3.31 5.94 -7.56c0.86,-0.98 2.04,-2.41 3,-3.46 0.92,-1 2.08,-2.18 3.04,-3.16l69.22 -51.58 5.64 -3.05c12.56,-18.6 298.47,-249.95 340.89,-283.02 25.85,-20.16 46.63,-39.62 70.9,-58.38 23.53,-18.19 44.51,-36.38 68.46,-55.2l244.31 -199.75c15.15,-11.73 19.36,-16.75 33.77,-28.06l210.53 -171.68c25.29,-22.38 123.1,-92.24 136.85,-118.62l-33.43 0.94 0.69 -57.93c-36.74,23.42 -69.19,57.41 -108.3,82.19z"/>
   <path class="fil5" d="M754.94 3655.41c30.76,7.59 78.01,32 107.24,43.97 36.42,14.92 71.86,30.25 106.39,44.5l67.69 27.47c18.55,12.82 51.75,23.6 74.96,33.55l528.67 226.12 71.68 32.91c63.64,25.93 125.01,51.24 187.66,78.5l142.01 60.59c17.95,7.19 30.47,10.55 44.32,24.11l3.67 0 -0.12 -86.91 -3.55 0 -315.12 -133.05c-34.33,-14.06 -70.5,-32.15 -107.99,-45.43 -23.04,-6.62 -51.48,-19.71 -67.68,-32.12 -46.38,-10.7 -539.23,-235.19 -598,-252.59l-7.58 -2.07 -65.76 -28.13c-15.52,-11.51 -65.6,-30.48 -87.03,-39.39 -25.03,-10.39 -71.46,-34.28 -96.27,-35.97l14.81 83.94z"/>
   <path class="fil5" d="M2779.44 787.43c-7.48,14.64 -24.29,36.83 -35.4,51.59 -13.22,17.57 -23.02,30.32 -36.33,47.9l-144.19 192.74c-24.86,33.05 -47.25,64.99 -72.97,96.66l-56.43 77.59c-6.8,7.07 -2.25,3.22 -10.08,8.92 -7.41,21.33 -434.68,570.41 -473.88,636.6l67.69 -1.39 1.3 25.93c8.64,-6.04 7.93,-4.46 15.63,-12.46 16.45,-30.28 106.89,-142.69 132.02,-178.92 95.8,-138.08 239.06,-308.19 331.69,-443.24l67.67 -90.64c8.85,-17.68 46.31,-67.09 60.97,-78l5.64 -5.95c16.74,-31.38 38.57,-56.61 60.45,-85.53l193.41 -260.47 -107.19 18.67z"/>
   <path class="fil4" d="M2074.27 2946.36c-130.57,61.87 -270.66,138.77 -399.43,200.9l-59.4 30.61c-35.13,17.4 -124.99,67.44 -156.09,74.62l-0.38 145.5c40.84,9.12 89.7,24.29 130.57,33.15 46.39,10.06 91.44,23.99 135.39,33.59 91.44,19.97 183.08,48.78 270.36,64.68l65.11 19.67 19.51 2.72 9.57 3.82 -0.1 -80.24 -3.82 0c-17.94,-0.2 -15.32,-2.17 -32.03,-6.51 -10.45,-2.71 -29.76,-5.64 -35.67,-7.13l-65.18 -18.98c-25.83,-1.8 -54.87,-11.6 -80.36,-17.92 -23.78,-5.9 -49.2,-12.18 -76.73,-19.02 -50.14,-12.42 -105.45,-30.22 -155.7,-37.58 -29.74,-8.04 -134.59,-25.74 -160.42,-44.03l36.31 -13.45 445.63 -226.2c20.78,-10.23 48.42,-21.81 67.73,-35.07l59.72 -28.06 0.84 -83 -15.43 7.93z"/>
   <path class="fil5" d="M1211.76 2474.63c-12.5,17.35 -58.43,53.37 -79.59,62.34l-5.65 3.75c-59.04,46.4 -116.2,87.54 -177.3,132.97 -31.01,23.06 -56.89,42.33 -87.07,64.72 -28.68,21.29 -60.21,51.31 -92.06,66.39l-18.54 106.33 318.56 -236.88c11.85,-12.34 66.15,-50.92 84.62,-61.92 14.94,-13.18 28.25,-21.62 43.53,-32.98l135.39 -100.72c36.87,-27.45 508.28,-389.48 531.9,-395.73l10.58 -17.39 -27.75 -0.16 4.03 -66.4 -640.65 475.68z"/>
   <path class="fil5" d="M2751.24 4988.37c17.08,17.97 39.52,49.98 53,77.26 64.27,109.5 213.69,330.11 293.45,450.98 10.33,15.66 16.4,27.46 25.82,41.54 18.65,27.86 34.37,50.87 53.21,81.53 9.51,15.47 17.15,25.89 26.97,40.39 10.63,15.71 17.93,30.95 29.03,45.91l2.4 5.53 -0.04 -24.57 109.72 -0.42 -41.18 -1.71 -13.72 -29.2 -136.33 -208.84c-39.42,-66.28 -209.26,-310.77 -227.45,-353.02 -15.35,-13.34 -40.13,-51.36 -48.95,-70.5 -8.23,-11.32 -10.48,-17.74 -17.68,-29.14l-52.92 -81.71c-23.72,-36.69 -206.91,-304.67 -213.29,-333.89l-90.27 -0.99c14.15,36.74 182.13,280.42 216.18,337.62 12.41,20.86 22.04,32.34 32.05,53.23z"/>
   <path class="fil5" d="M3958.48 1107.07c25.59,18.94 49.23,55.55 68.25,86.04l535.38 701.71c26.22,22.09 19.57,24.27 19.38,65.76 5.85,-19.62 1.58,-43.91 2.45,-67.1 0.82,-21.8 0.51,-16.2 -19.99,-39.91 -20.7,-32.9 -41.11,-55.58 -59.27,-99.56 -21.78,-52.73 -18.33,-61.29 -28.83,-106.41 -2.71,-11.67 0.47,-4.16 -4,-12.94 -5.06,16.03 4.78,26.53 -33.82,-27.45l-78.19 -101.53c-22.36,-29.69 -187.46,-237.99 -192.62,-255.79 -18.37,-9.96 -50.36,-59.64 -64.62,-79.17 -18.26,-33.81 -264.71,-336.54 -265.42,-352.55 -19.99,-13.44 -86.85,-24.81 -115.63,-29.11 19.71,41.37 230.84,299.53 236.93,318.01z"/>
   <path class="fil2" d="M3400.66 5166.36l0 163.96 -169.91 0c14.62,6.46 40.92,3.93 62.05,3.93l-2.9 341.36 13.72 29.2 41.18 1.71 -1.25 -372.27c20.82,0 41.53,2.47 57.11,-3.93 11,-23.2 4.97,-67.21 4.97,-96.8 19.75,-1.63 350.65,-143.06 399.79,-163.03l635.82 -264.77c19.05,-8.14 17.54,-11.6 36.25,-11.53l5.65 0c0,-10.1 -3.03,-8.5 5.63,-8.09 39.11,-24.78 71.56,-58.77 108.3,-82.19l-2.05 -18.81 -1038.99 434.59c-50.26,22.29 -104.76,39.5 -150.4,63.46l-4.97 -16.79z"/>
   <path class="fil2" d="M1070.11 2674.25c-5.15,25.39 -21.1,58.14 -31.46,82.54l-228.04 557.26 -91.61 0 1.07 50.36 90.89 0c1.55,22.61 16.72,48.92 25.44,69.55 16.49,39.06 81.8,185.63 87.03,212.87l65.76 28.13 7.58 2.07 -7.58 -2.07c-1.23,-22.13 -3.57,-18.3 -12.51,-38.82 -7.16,-16.42 -9.46,-23.19 -16.17,-39.9l-99.13 -231.83 426.66 0 1.64 -50.36 -422.66 0 249.82 -613.99c7.06,-17.61 11.4,-26.14 18.56,-43.15 7.6,-18.01 9.74,-26.43 19.33,-44.58 -18.47,11 -72.77,49.58 -84.62,61.92z"/>
   <path class="fil2" d="M3524.1 5675.61c0,7.76 1.63,6.33 -5.64,3.05l-69.22 51.58c-0.96,0.98 -2.12,2.16 -3.04,3.16 -0.96,1.05 -2.14,2.48 -3,3.46l-5.94 7.56 86.84 -6.45c1,-0.97 2.61,-3.75 3.13,-2.74l33.91 -17.3c16.38,-6.6 27.03,-11.38 43.5,-18.38 29.32,-12.46 54.48,-23.87 83.05,-35.14 273.09,-107.67 562.21,-239.25 834.07,-347.81 27.24,-10.88 319.81,-135.73 339.34,-137.21 26.23,-18.69 107.56,-83.57 121.08,-108.16l-1365.43 567.57c-30.64,12.76 -60.96,29.49 -92.65,36.81z"/>
   <polygon class="fil2" points="1865.55,2082.9 1381.78,3252.49 1435.37,3252.49 1927.59,2066.81 1876.13,2065.51 "/>
   <path class="fil2" d="M3794.19 2150.05l21.11 61.55 408.33 162.3 -225.65 229.8 35.34 -0.71 1 87.33 3.15 0c0,-78.47 -4.29,-51.95 97.31,-152.74 31.29,-31.04 97.57,-104.07 128.34,-124.51 4.95,21.07 8.76,37.1 25.6,50.36l17.3 -83.94c-6.24,-16.45 -5.33,-6.97 4.48,-11.19 15.27,-46.68 49.98,-105.77 75.14,-130.27 13,-12.67 41.09,-32.12 61.38,-45.31 23.02,-14.97 48.1,-20.7 67.91,-37.08 12.83,-14.06 21.44,-21.94 34.49,-34.99 6.68,-6.69 9.9,-10.65 16.81,-17.04 12.56,-11.61 4.77,-7.23 18.45,-13.02l14.51 -30.08c-7.22,-8.3 2.86,-2.29 -14.11,-11.54l-3.51 -22.03c-39.78,20.46 -300.54,303.18 -318.45,307.78 -9.04,2.33 -361.43,-143.19 -407.04,-161.43 -22.44,-8.97 -36.85,-17.78 -61.89,-23.24z"/>
   <path class="fil2" d="M3579.16 1556.86l126.27 49.56c42.94,17 83.42,34.26 124.11,50.37l751.95 303.79c0.19,-41.49 6.84,-43.67 -19.38,-65.76 -15.05,1.66 -716.43,-286.47 -749.44,-299.64 -34.02,-13.58 -235.13,-98.25 -254.32,-99.88l20.81 61.56z"/>
   <path class="fil2" d="M2034.78 1911.51c-7.7,8 -6.99,6.42 -15.63,12.46l-1.09 47 863.67 -357.41c29.59,-12.02 106.41,-46.38 131.98,-51.1l23.77 -67.16 -373.32 154.26c-199.46,78.89 -425.14,178.41 -629.38,261.95z"/>
   <path class="fil2" d="M2085.56 3056.62l0 251.83 -107.19 0 107.19 -251.83zm-56.42 -7.13l-77.4 193.38c-10.31,23.55 -17.94,39.17 -24.15,65.58 -54.27,0 -401.57,6.09 -411.81,2.31l-36.31 13.45c25.83,18.29 130.68,35.99 160.42,44.03 29.55,-12.72 226.58,-9.42 282.07,-9.42 8.05,15.1 33.84,71.95 30.72,83.94l65.18 18.98c-7.27,-36.74 -31.07,-67.07 -39.49,-102.92l107.19 0 0 116.56 3.82 0 -0.52 -453.95 -59.72 28.06z"/>
   <path class="fil2" d="M3362.77 954.16l3.37 0.94c19.02,0.58 15.75,6.01 16.93,-19.41l82.73 29.85c127.33,56.79 345.85,139.93 480.66,194.73 23.96,9.75 55.64,21.74 80.27,32.84 -19.02,-30.49 -42.66,-67.1 -68.25,-86.04 -21.73,-1.15 -116.11,-42.89 -141.12,-53.77l-434.29 -174.73c-7.87,18.73 -3.32,43.73 -2.2,68.31 -11.71,8.39 16.76,7.11 -18.1,7.28z"/>
   <path class="fil2" d="M2632.77 1114.76l-5.64 5.95c-14.66,10.91 -52.12,60.32 -60.97,78l318.02 -131.15c56.51,-22.27 102.78,-44.34 158.8,-66.31 37.8,-14.82 135.57,-59.02 166.16,-65.56l0.68 -55.96c-38.88,7.89 -526.67,223.39 -577.05,235.03z"/>
   <path class="fil2" d="M4084.6 527.17c16.83,-9.15 109.42,36.4 132.52,45.63l407.04 169.6c18.79,-9.2 8.38,-1.52 22.14,-19.69 10.08,-13.32 9.18,-10.89 15.63,-27.65 -38.45,-6.67 -527.49,-216.67 -564.78,-223.85l-12.55 55.96z"/>
   <path class="fil2" d="M1594.77 3929.62c16.2,12.41 44.64,25.5 67.68,32.12 -3.89,-41.41 -216.62,-490.98 -220.01,-537.94l-56.41 -0.06c5.14,26.09 14.16,40.13 23.43,62.93 8.19,20.17 16.01,41.58 25.75,63.99l159.56 378.96z"/>
   <polygon class="fil3" points="1289.68,3314.05 1288.04,3364.41 1290.39,3425.96 1386.03,3423.74 1442.44,3423.8 1459.31,3426.41 1458.97,3397.99 1459.35,3252.49 1435.37,3252.49 1381.78,3252.49 1290.12,3252.49 "/>
   <path class="fil3" d="M3209.82 879.73l-0.68 55.96c0.27,21.98 -3.66,17.29 16.58,22.38 22.33,-12.23 104.63,-5.74 137.05,-3.91 34.86,-0.17 6.39,1.11 18.1,-7.28 -1.12,-24.58 -5.67,-49.58 2.2,-68.31l0 -93.97 -62.06 -0.06 -50.77 0.77 -62.05 -0.81 1.63 95.23z"/>
   <polygon class="fil3" points="3231.58,5183.15 3231.57,5239.11 3230.75,5330.32 3400.66,5330.32 3400.66,5166.36 3399.99,5161.9 3253.32,5159.35 3230.77,5161.05 "/>
   <polygon class="fil3" points="3864.17,2625.72 3864.49,2676.08 3864.53,2743.24 3864.79,2768.92 3896.43,2770.8 3958.48,2770.99 4014.9,2772.42 4034.56,2771.22 4034.32,2690.32 4033.32,2602.99 3997.98,2603.7 3958.48,2601.96 3879.51,2602.86 3862.59,2603.43 "/>
   <path class="fil3" d="M1848.87 1926.21c-0.44,24.94 -2.53,49.66 3.54,72.74l-4.03 66.4 27.75 0.16 51.46 1.3 62.06 -0.86 28 -0.32 0.49 -38.69 -0.08 -55.97 1.09 -47 -1.3 -25.93 -67.69 1.39 -62.05 -1.11 -39.16 0.34 -0.08 27.55z"/>
   <path class="fil3" d="M4595.29 4634.73l-0.27 50.37 2.05 18.81 -0.69 57.93 33.43 -0.94 95.9 0.74 37.91 0.41 1.44 -26.59 0.14 -141.96 -72.51 1.33 -81.02 -0.12c-25.25,3.19 -8.98,-6.71 -15.53,12.05l-0.85 27.97z"/>
   <path class="fil2" d="M4155.94 3241.09l53.9 -0.3 0 -5.09 -194.94 -463.28 -56.42 -1.43 172.97 410.66c9.28,20.58 15.53,41.31 24.49,59.44z"/>
   <path class="fil5" d="M4308.25 3711.37c7.57,0 6,-1.82 4.54,5.59l13 21.62c12.87,-3.65 21.42,-8.36 34.22,-14.88 3.8,-1.94 12.29,-6.31 14.78,-7.85 9.86,-6.08 6.39,-3.43 13.53,-10.08 -12.07,-36.79 -23.41,-69.17 -35.66,-105.61 -8.2,-24.43 -30.97,-81.28 -33.12,-107.04 -6.92,-4.15 -6.67,7.86 -4.73,-11.19l-23.29 -72.91 -81.93 1.02 0 4.74 98.66 296.59z"/>
   <path class="fil3" d="M4209.84 3240.79l-53.9 0.3 -22.57 0.25 1.4 61.52 -0.24 50.36 -1.32 55.96 22.73 1.32 53.65 -0.46 81.93 -1.02c-12.56,-60.8 -15.96,-119.58 -26.5,-178.67 -6.51,16.55 7.92,9.63 -23.67,11.93 -6.56,0.47 -24.31,-1.17 -31.51,-1.49z"/>
   <path class="fil2" d="M4167.22 1249.89c27.48,12.07 56.63,22.81 87.84,35.15 33.69,13.32 59.05,24.58 91.87,37.58 60,23.77 119.2,48.03 181.34,74.19 7.81,-5.82 2.93,-1.53 9.69,-8.98 1.47,-1.61 6.26,-7.44 7.82,-9.61 6.04,-8.37 7.9,-11.55 13.45,-22.82l-456.63 -184.68c14.26,19.53 46.25,69.21 64.62,79.17z"/>
   <path class="fil2" d="M1989.65 2065.95l200.5 198.6c15.16,12.73 20.32,15.48 30.8,31l-131.74 2.14c-8.79,29.52 -4.27,473.25 -3.61,574.3 0.28,43.92 2.74,43.36 -11.33,74.37l15.43 -7.93 -0.49 -640.74c42.04,0 180.19,8.7 205.82,-2.14l-276.89 -268.61 -0.49 38.69 -28 0.32z"/>
   <path class="fil4" d="M4034.56 2771.22l217.27 106.34c0.01,37.99 -8.83,124.07 4.29,151.08l3.2 -235.03c-25.11,-5.02 -86.14,-38.39 -113.58,-51.44 -14.9,-7.09 -35.94,-16.8 -53.1,-25.69 -18.95,-9.81 -37.05,-17.61 -55.17,-26.16l-3.15 0 0.24 80.9z"/>
   <path class="fil3" d="M4581.49 1960.58l-2.46 59.91c4.42,7.9 1.27,-7.92 4.97,12.33 0.72,3.95 0.9,11.86 1.08,16.15 54.62,6.04 109.56,1.2 164.38,-0.36l-0.12 -68.48c-37.47,-20.4 -65.75,-26.92 -104.11,-52.67 -15.1,-10.14 -32.16,-23.29 -44.3,-34.32 -11.7,-10.61 -22.4,-27.73 -36.98,-39.57 20.5,23.71 20.81,18.11 19.99,39.91 -0.87,23.19 3.4,47.48 -2.45,67.1z"/>
   <path class="fil2" d="M4725.71 4761.64l79.59 79.55c45.48,41.54 188.72,180.77 202.48,202.73 17.97,-7.99 29.93,-21.79 37.57,-39.84 -10.22,-6.72 -8.22,-4.92 -18.07,-13.61 -9.65,-8.5 -9.15,-9.05 -17.21,-16.63 -53.09,-49.92 -218.83,-221.27 -245.01,-238.38l-1.44 26.59 -37.91 -0.41z"/>
   <path class="fil2" d="M2926.12 5113.75c28.28,11.94 46.81,20.82 76.56,32.63 27.65,10.96 51.21,20.2 75.9,31.03 50.14,22 103,39.75 152.99,61.7l0.01 -55.96 -265.96 -106.33c-27.95,-11.02 -58.94,-25.5 -88.45,-33.57 8.82,19.14 33.6,57.16 48.95,70.5z"/>
   <path class="fil2" d="M3563.59 2559.47c15.54,2.4 54.26,20.36 72.59,27.82l148.23 60.01c21.43,8.49 58.16,27.21 80.08,28.78l-0.32 -50.36 -354.52 -145.5c13.05,27.82 32.5,60.43 53.94,79.25z"/>
   <path class="fil4" d="M4388.32 3705.77c-7.14,6.65 -3.67,4 -13.53,10.08 -2.49,1.54 -10.98,5.91 -14.78,7.85 -12.8,6.52 -21.35,11.23 -34.22,14.88 6.82,17.32 24.79,48.94 38.6,60.73l51.04 -21.75c15.65,-11.55 35.13,-22.18 56.91,-27.02 13.52,-14.49 42.5,-28.48 67.34,-35.87l-2.19 -115.22c-28.54,25.43 -0.25,32.29 -39.84,53.57 -9.52,5.13 -12.55,6.71 -22.06,11.7 -22.01,11.53 -66.05,35.65 -87.27,41.05z"/>
   <path class="fil2" d="M2457.76 2295.55c31.62,13.75 107.85,2.21 146.8,2.51 0.97,-1.15 2.64,-4.22 3.22,-3.16l179.44 -77.7 20.27 -61.56 -349.73 139.91zm325.32 -72.75l-3.64 4.71 3.64 -4.71z"/>
   <path class="fil2" d="M3873.87 4421.39l-129.75 54.85c-14.82,17.02 -30.76,48.24 -39.21,74.55 18.55,-10.04 45.18,-20.01 66.61,-28.77l202.29 -84.74c31.77,-13.89 35.91,-15.64 80.5,-15.28 33.7,0.27 267.22,6.3 287.79,-4.66 -147.6,0 -327.75,-7.77 -468.23,4.05z"/>
   <path class="fil2" d="M2933.91 4589.96l3.94 -27.95c27.49,6.43 62.15,23.7 88.95,34.41 19.13,7.64 70.17,31 91.39,32.72 -3.76,-18.75 -7.03,-40.99 -17.19,-54.19l-163.6 -68.93 0 -391.73c15.69,1.3 38.59,10.87 49.82,16.79l-14.56 -61.56c-19.33,-3.99 -17.01,-6.97 -35.26,-11.19l0 -26.7c-10.64,23.65 -3.47,488.19 -3.49,558.33z"/>
   <path class="fil5" d="M4603.69 4567.58l7.98 27.13 81.02 0.12 -5.52 -10.46 -57.36 -168.15 -78.98 0.52c10.16,20.45 17.2,49.65 26.03,74.65 6.14,17.39 8.84,20.52 14.12,36.28 4.61,13.78 6.12,23.97 12.71,39.91z"/>
   <path class="fil2" d="M4595.29 4634.73l0.85 -27.97c6.55,-18.76 -9.72,-8.86 15.53,-12.05l-7.98 -27.13c-23.24,-12.45 -133.82,-124.79 -154.41,-149.44l-78.98 -0.98c37.59,29.13 76.07,71.97 111.42,107.05 31.05,30.8 82.14,87.9 113.57,110.52z"/>
   <polygon class="fil3" points="2937.14,3804.11 2978.53,3804.1 3001.89,3803.52 3002.19,3636.82 2968.5,3633.02 2937.12,3633.02 "/>
   <path class="fil2" d="M2085.56 4140.22l3.55 0 0.37 -584.6 -9.57 -3.82c9.11,15.97 5.65,31.85 5.65,53.24l-16.53 -28.86c-4.89,-11.97 -8.94,-20.82 -8.63,-27.1l-65.11 -19.67 77.14 183.8c14.3,30.62 13.5,34.4 13.2,76.43 -0.83,116.76 -0.07,233.79 -0.07,350.58z"/>
   <path class="fil2" d="M4687.17 4584.37l5.52 10.46 72.51 -1.33 -16.87 -3.99c2.21,-26.5 39.46,-102.09 51.49,-133.1 1.52,-3.94 8.15,-21.19 9.84,-23.87 10.76,-17.07 -1.03,-4.23 17.6,-15.2l-78.98 0 11.11 5.38c-13.03,24.1 -23.62,53.99 -34.46,82.52 -5.56,14.61 -27.5,70.72 -37.76,79.13z"/>
   <path class="fil6" d="M4472.34 3750.54l-27.78 62.83c-3.54,8.27 -1.2,4.11 -4.96,10.53 -5.35,9.11 -3.01,4.98 -5.7,7.22l-3.79 -2.23 3.79 2.23c1.85,23.65 11.79,64.13 26.66,79.55 9.77,-33.88 24.63,-61.44 37.9,-94.56 10.36,-25.87 26.37,-76.22 40.71,-93.55l0.51 -7.89c-24.84,7.39 -53.82,21.38 -67.34,35.87z"/>
   <path class="fil2" d="M3750.31 2849.57c8.02,22.87 11.99,26.95 27.65,43.04 23.38,-10.89 39.79,-36.48 58.08,-58.18 20,-23.74 44.18,-38.44 60.39,-63.63l-31.64 -1.88 -0.26 -25.68c-39.87,21.65 -75.39,78.76 -114.22,106.33z"/>
   <polygon class="fil3" points="3235.12,5731.51 3235.74,5751.02 3404.55,5747.73 3404.33,5708.36 3367.88,5703.59 3344.8,5706.52 3235.08,5706.94 "/>
   <path class="fil5" d="M4585.08 2048.97c-0.18,-4.29 -0.36,-12.2 -1.08,-16.15 -3.7,-20.25 -0.55,-4.43 -4.97,-12.33l2.54 6.45 3.51 22.03c16.97,9.25 6.89,3.24 14.11,11.54l-14.51 30.08c-2.17,21.78 -9.37,25.08 -11.28,48.81l84.62 -15.4c1.75,-23.93 10.78,-42.32 18.37,-63.49 14.2,-12.88 31.59,-8.01 54.96,-7.77l22.54 2.62 0.03 -75.23 -4.58 0 0.12 68.48c-54.82,1.56 -109.76,6.4 -164.38,0.36z"/>
   <path class="fil5" d="M4364.39 3799.31c8.18,22.18 109.57,178.26 124.38,190.87l-28.21 -79.51c-14.87,-15.42 -24.81,-55.9 -26.66,-79.55l-3.79 -2.23c-5.83,-22.16 -10.51,-32.13 -14.68,-51.33l-51.04 21.75z"/>
   <path class="fil5" d="M4209.84 3235.7l0 5.09c7.2,0.32 24.95,1.96 31.51,1.49 31.59,-2.3 17.16,4.62 23.67,-11.93l-5.7 -128.96c-15.01,16.37 -43.84,113.6 -49.48,134.31z"/>
   <path class="fil6" d="M4139.45 3448.35c5.63,19.31 17.84,39.17 33.41,53.03 13.9,-21.35 27.59,-62.34 36.73,-86.6l0 -4.74 -53.65 0.46 -16.49 37.85z"/>
   <polygon class="fil6" points="4076.95,3352.14 4134.53,3353.22 4134.77,3302.86 4043.21,3302.86 "/>
   <path class="fil2" d="M4703.15 2118.62l50.77 -1.99c-5,-21.58 -14.63,-43.81 -22.57,-63.89 -23.37,-0.24 -40.76,-5.11 -54.96,7.77 12.1,17.59 17.82,37.53 26.76,58.11z"/>
   <path class="fil2" d="M3270.24 785.31l50.77 -0.77 0 -39.12 32.24 0c-18,-6.39 -164.88,-6.85 -181.89,0l98.88 0 0 39.89z"/>
   <path class="fil7" d="M3281.53 6496.36l78.97 -0.63c40.8,7.06 204.35,-8.63 249.17,-13.33 84.03,-8.81 156.89,-15.12 234.55,-30.36 232.1,-45.54 402.32,-80.19 629.25,-170.44 32.59,-12.96 60.51,-22.97 92.35,-37.09 18.48,-8.18 35.49,-15.81 51.38,-22.98 -377.16,-672.43 0,0 -377.16,-672.43 -249.44,108.65 -414.68,146.17 -715.94,188.87l-86.84 6.45 -32.71 3.31 -168.81 3.29 -100.89 -2.67 -124.07 -11.22c-71.97,-3.02 -292.91,-44.61 -356.54,-60.44 -295.9,-73.63 -349.73,-95.76 -604.49,-222.99 -126.27,-63.06 -349.04,-219.35 -445.08,-308.37 -16.85,-15.62 -23.43,-15.19 -38.12,-33.59 -17.49,-11.85 -31.73,-22.48 -41.39,-40.51 -27.03,-17.72 -47.65,-38.82 -70.1,-62.88 -155.07,-166.31 -169.48,-191.79 -307.62,-377.58 -30.34,-40.8 -75.93,-123.75 -104.46,-170.59 -43.59,-71.56 -95.73,-191.76 -129.21,-274.75 -14.48,-35.9 -26.35,-63.03 -38.97,-101.24 -43.64,-132.21 -59.24,-175.38 -94.68,-314.59 -7.95,-31.21 -16.03,-91.72 -25.18,-114.19l-14.81 -83.94c0.06,-23.55 -6.01,-67.64 -9.46,-99.79 -3.14,-29.32 -9.98,-75.06 -10.6,-107.27l-1.07 -50.36c6.83,-73.34 -0.09,-138.71 10.23,-209.43 4.99,-34.21 5.23,-63.01 9.7,-96.72 3.41,-25.73 12.39,-71.32 12.62,-96.77l18.54 -106.33 40.45 -201.53c40.45,-164.31 114.95,-385.04 202.06,-527.05 82.2,-134 77.91,-144.59 189.64,-298.75 67.26,-92.79 112.32,-135.59 163.6,-201.46 19.17,-24.62 40.5,-40.21 61.49,-63.92l37.67 -36.78c78.25,-72.88 138.68,-133.71 228.81,-200.72 128.38,-95.47 319.82,-221.8 466.65,-286.99 90.58,-40.22 113.65,-53.21 220.83,-94.32 123.84,-47.49 253.4,-78.34 398.15,-105.85l107.19 -18.67c28.23,-1.85 41.15,-4 67.22,-7.03 21.71,-2.52 46.67,-3.38 72.24,-6.68 38.78,-5.01 99.78,-9.63 145.27,-9.63 17.01,-6.85 163.89,-6.39 181.89,0 58.69,0 139.1,7.62 189.54,15.04 33.68,4.96 56.32,8.97 88.23,13.21 27.95,3.71 65.46,15.43 90.53,15.39 28.78,4.3 95.64,15.67 115.63,29.11 56.67,3.86 113.11,33.58 166.44,33.58 2.03,-24.18 12.69,-55.93 19.18,-81.7 7.36,-29.23 12.92,-52.99 20.98,-79.92l40.82 -162.96 12.55 -55.96c17.8,-40.7 54.66,-201.38 70.06,-263.03 6.77,-27.11 20.29,-62.28 22.57,-89.53 -334.93,-77.4 -680.86,-139.16 -1027.04,-112.23 -512.67,39.88 -893.24,90.87 -1367.81,344.39 -348.38,186.11 -435.33,267.68 -711.87,497 -29.84,24.74 -54.36,56.78 -88.83,85.36l-284.4 311.07c-208.82,278.5 -362.03,502.15 -483.81,840.75 -170.03,472.7 -275.16,981.75 -202.88,1500.96 54.37,390.53 128.34,672.31 292.88,1024.56 12.07,25.84 23.79,44.97 35.77,70.84 112.27,242.35 247.9,430.57 414.47,635.33 11.04,13.56 12.49,17.03 25.98,30.19l160.82 170.65c38.02,37.73 72.16,71.2 109.97,109.15l115.59 103.59c12.25,12.17 15.35,13.04 27.67,22.92l92.68 75.95c180.73,140.91 214.87,156.31 394.95,262.97 120.15,71.15 327.34,155.13 461.44,202.59 305.25,108.05 476.44,153.4 803.65,187.71 87.93,9.22 239.97,24.68 322.52,13.96z"/>
  </g>
 </g>
</svg>
