<svg xmlns="http://www.w3.org/2000/svg" viewBox="0 0 106.74 116.93"><defs><style>.cls-1,.cls-2{fill:#18ba60;}.cls-2{isolation:isolate;font-size:18px;font-family:OpenSans-Bold, Open Sans;font-weight:700;}</style></defs><title>Recurso 1</title><g id="Capa_2" data-name="Capa 2"><g id="Capa_1-2" data-name="Capa 1"><path class="cls-1" d="M90.9,0c-5.17,0-9.38,3.67-9.38,8.17A7.45,7.45,0,0,0,83.41,13L68.1,27.5a10.58,10.58,0,0,0-2.22-.26,10.32,10.32,0,0,0-5.19,1.38L49.77,21.49a7.12,7.12,0,0,0,.47-2.42c0-4.51-4.21-8.17-9.38-8.17s-9.38,3.67-9.38,8.17A7.12,7.12,0,0,0,32,21.49L21,28.62a10.32,10.32,0,0,0-5.19-1.38c-5.17,0-9.38,3.67-9.38,8.17s4.21,8.17,9.38,8.17,9.38-3.67,9.38-8.17A7.12,7.12,0,0,0,24.75,33l10.91-7.13a10.5,10.5,0,0,0,10.39,0L57,33a7.12,7.12,0,0,0-.47,2.42c0,4.51,4.21,8.17,9.38,8.17s9.38-3.67,9.38-8.17a7.45,7.45,0,0,0-1.89-4.86l15.3-14.47a10.58,10.58,0,0,0,2.22.26c5.17,0,9.38-3.67,9.38-8.17S96.08,0,90.9,0Z"/><path class="cls-1" d="M47.11,43.59H34.6a3,3,0,0,0-3.13,2.72V82.1H50.24V46.32A3,3,0,0,0,47.11,43.59Z"/><path class="cls-1" d="M72.14,54.49H59.63a3,3,0,0,0-3.13,2.72V82.1H75.26V57.22A3,3,0,0,0,72.14,54.49Z"/><path class="cls-1" d="M97.16,32.7H84.65a3,3,0,0,0-3.13,2.72V82.1h18.77V35.42A3,3,0,0,0,97.16,32.7Z"/><path class="cls-1" d="M22.09,59.94H9.58a3,3,0,0,0-3.13,2.72V82.1H25.22V62.67A3,3,0,0,0,22.09,59.94Z"/><path class="cls-1" d="M103.62,87.55H3.12a2.75,2.75,0,1,0,0,5.45h100.5a2.75,2.75,0,1,0,0-5.45Z"/><text class="cls-2" transform="translate(1.99 111.66)">FinanceTop</text></g></g></svg>