<svg xmlns="http://www.w3.org/2000/svg" viewBox="0 0 106.76 116.94"><defs><style>.cls-1,.cls-2{fill:#fa2964;}.cls-2{font-size:18px;font-family:OpenSans-Bold, Open Sans;font-weight:700;}</style></defs><title>Recurso 5</title><g id="Capa_2" data-name="Capa 2"><g id="Capa_1-2" data-name="Capa 1"><path class="cls-1" d="M47.12,43.59H34.61a3,3,0,0,0-3.13,2.72V82.1H50.25V46.32A3,3,0,0,0,47.12,43.59Z"/><path class="cls-1" d="M72.15,54.49H59.64a3,3,0,0,0-3.13,2.72V82.1H75.27V57.22A3,3,0,0,0,72.15,54.49Z"/><path class="cls-1" d="M97.17,32.7H84.66a3,3,0,0,0-3.13,2.72V82.1H100.3V35.42A3,3,0,0,0,97.17,32.7Z"/><path class="cls-1" d="M90.91,0c-5.17,0-9.38,3.67-9.38,8.17A7.45,7.45,0,0,0,83.42,13L68.11,27.5a10.58,10.58,0,0,0-2.22-.26,10.32,10.32,0,0,0-5.19,1.38L49.78,21.49a7.12,7.12,0,0,0,.47-2.42c0-4.51-4.21-8.17-9.38-8.17s-9.38,3.67-9.38,8.17A7.12,7.12,0,0,0,32,21.49L21,28.62a10.32,10.32,0,0,0-5.19-1.38c-5.17,0-9.38,3.67-9.38,8.17s4.21,8.17,9.38,8.17,9.38-3.67,9.38-8.17A7.12,7.12,0,0,0,24.76,33l10.91-7.13a10.5,10.5,0,0,0,10.39,0L57,33a7.12,7.12,0,0,0-.47,2.42c0,4.51,4.21,8.17,9.38,8.17s9.38-3.67,9.38-8.17a7.45,7.45,0,0,0-1.89-4.86l15.3-14.47a10.58,10.58,0,0,0,2.22.26c5.17,0,9.38-3.67,9.38-8.17S96.09,0,90.91,0Z"/><path class="cls-1" d="M22.1,59.94H9.59a3,3,0,0,0-3.13,2.72V82.1H25.23V62.67A3,3,0,0,0,22.1,59.94Z"/><path class="cls-1" d="M103.63,87.55H3.13a2.75,2.75,0,1,0,0,5.45h100.5a2.75,2.75,0,1,0,0-5.45Z"/><text class="cls-2" transform="translate(2 111.66)">FinanceTop</text></g></g></svg>